<svg width="24" height="25" viewBox="0 0 24 25" fill="none" xmlns="http://www.w3.org/2000/svg">
<path d="M12.0142 2.72559C6.49136 2.72559 2.01416 7.20259 2.01416 12.7256C2.01416 18.2486 6.49136 22.7256 12.0142 22.7256C17.5372 22.7256 22.0142 18.2486 22.0142 12.7256C22.0142 7.20259 17.5372 2.72559 12.0142 2.72559ZM12.0142 4.72559C16.4322 4.72559 20.0142 8.30759 20.0142 12.7256C20.0142 16.7916 16.9412 20.0286 13.0142 20.5376V15.7256H15.0142V12.7256H13.0142V11.7256C13.0142 11.1556 13.4952 10.7246 14.0142 10.7256C14.3102 10.7256 15.0142 10.7256 15.0142 10.7256V7.72559H13.0142C11.3152 7.74459 10.0252 9.09159 10.0142 10.7256V12.7256H8.01416V15.7256H10.0142V20.3196C6.58726 19.4156 4.01416 16.4366 4.01416 12.7256C4.01416 8.30759 7.59586 4.72559 12.0142 4.72559Z" fill="white"/>
</svg>
