<svg width="24" height="25" viewBox="0 0 24 25" fill="none" xmlns="http://www.w3.org/2000/svg">
<path d="M7.99829 3.71729C5.23729 3.71729 2.99829 5.95629 2.99829 8.71729V16.7173C2.99829 19.4783 5.23729 21.7173 7.99829 21.7173H15.9983C18.7593 21.7173 20.9983 19.4783 20.9983 16.7173V8.71729C20.9983 5.95629 18.7593 3.71729 15.9983 3.71729H7.99829ZM7.99829 5.71729H15.9983C17.6553 5.71729 18.9983 7.06029 18.9983 8.71729V16.7173C18.9983 18.3743 17.6553 19.7173 15.9983 19.7173H7.99829C6.34129 19.7173 4.99829 18.3743 4.99829 16.7173V8.71729C4.99829 7.06029 6.34129 5.71729 7.99829 5.71729ZM15.9983 7.71729C15.4463 7.71729 14.9983 8.16529 14.9983 8.71729C14.9983 9.26929 15.4463 9.71729 15.9983 9.71729C16.5503 9.71729 16.9983 9.26929 16.9983 8.71729C16.9983 8.16529 16.5503 7.71729 15.9983 7.71729ZM11.9983 8.71729C9.78929 8.71729 7.99829 10.5083 7.99829 12.7173C7.99829 14.9263 9.78929 16.7173 11.9983 16.7173C14.2073 16.7173 15.9983 14.9263 15.9983 12.7173C15.9983 10.5083 14.2073 8.71729 11.9983 8.71729ZM11.9983 10.7173C13.1033 10.7173 13.9983 11.6123 13.9983 12.7173C13.9983 13.8223 13.1033 14.7173 11.9983 14.7173C10.8933 14.7173 9.99829 13.8223 9.99829 12.7173C9.99829 11.6123 10.8933 10.7173 11.9983 10.7173Z" fill="white"/>
</svg>
