<svg width="24" height="25" viewBox="0 0 24 25" fill="none" xmlns="http://www.w3.org/2000/svg">
<path d="M21.9514 11.0695V10.879V10.7457C21.6844 9.3407 21.008 8.04101 20.0037 7.0029C18.922 5.88549 17.588 5.03099 16.1083 4.50769C14.7931 4.0114 13.3984 3.747 11.9889 3.72674C10.1309 3.71637 8.29857 4.15126 6.65214 4.9934C5.2105 5.65298 4.00038 6.71457 3.17387 8.04474C2.34737 9.37492 1.94135 10.9143 2.00684 12.4695C2.15339 14.0071 2.76731 15.4666 3.76952 16.6599C4.77121 17.84 6.05592 18.7594 7.50913 19.3361C8.40893 19.6746 9.3424 19.9204 10.2944 20.0694H10.4015C10.6742 20.0694 10.7423 20.1837 10.7618 20.2123C10.7813 20.2808 10.7813 20.3533 10.7618 20.4218C10.7618 20.4789 10.7618 20.5266 10.7618 20.5742C10.6212 20.9945 10.5779 21.4402 10.6352 21.8789C10.6617 22.1129 10.7759 22.3291 10.9557 22.4856C11.1356 22.6421 11.3683 22.728 11.6091 22.7265C12.1734 22.6588 12.7119 22.456 13.177 22.1361H13.2257C14.1995 21.5837 15.115 20.9456 15.8064 20.4599C17.4751 19.3908 18.9913 18.1097 20.3154 16.6504C21.5925 15.0742 22.1806 13.0681 21.9514 11.0695ZM8.22979 14.0504H6.50606C6.44431 14.0517 6.38293 14.0408 6.32562 14.0183C6.2683 13.9958 6.21624 13.9622 6.17256 13.9194C6.12889 13.8767 6.09451 13.8258 6.07149 13.7698C6.04846 13.7137 6.03728 13.6537 6.03861 13.5933V10.0505C6.03728 9.9901 6.04846 9.93007 6.07149 9.87402C6.09451 9.81797 6.12889 9.76706 6.17256 9.72435C6.21624 9.68164 6.2683 9.64801 6.32562 9.6255C6.38293 9.60299 6.44431 9.59205 6.50606 9.59335C6.56826 9.59208 6.6301 9.60297 6.68794 9.62537C6.74578 9.64778 6.79847 9.68125 6.84291 9.72383C6.88736 9.7664 6.92266 9.81723 6.94676 9.87332C6.97086 9.92941 6.98326 9.98964 6.98325 10.0505V13.1266H8.22979C8.35635 13.1266 8.47772 13.1758 8.56721 13.2633C8.6567 13.3508 8.70698 13.4695 8.70698 13.5933C8.70699 13.6541 8.69459 13.7144 8.67049 13.7705C8.64639 13.8266 8.61108 13.8774 8.56664 13.92C8.5222 13.9625 8.46951 13.996 8.41167 14.0184C8.35382 14.0408 8.29199 14.0517 8.22979 14.0504ZM10.0314 13.5838C10.0314 13.7101 9.98012 13.8312 9.88881 13.9205C9.79749 14.0098 9.67364 14.06 9.5445 14.06C9.41535 14.06 9.2915 14.0098 9.20018 13.9205C9.10887 13.8312 9.05757 13.7101 9.05757 13.5838V10.041C9.05757 9.91467 9.10887 9.79355 9.20018 9.70425C9.2915 9.61495 9.41535 9.56478 9.5445 9.56478C9.67364 9.56478 9.79749 9.61495 9.88881 9.70425C9.98012 9.79355 10.0314 9.91467 10.0314 10.041V13.5838ZM14.2969 13.5838C14.2956 13.6815 14.2629 13.7764 14.2035 13.855C14.1441 13.9336 14.061 13.992 13.9658 14.0219H13.8197C13.7454 14.0227 13.6719 14.0058 13.6057 13.9726C13.5396 13.9394 13.4826 13.8909 13.4399 13.8314L11.7454 11.5648V13.5838C11.7429 13.7059 11.6915 13.8222 11.6023 13.9076C11.513 13.9931 11.3931 14.0409 11.2682 14.0409C11.2044 14.0448 11.1405 14.0359 11.0804 14.0147C11.0202 13.9935 10.9652 13.9604 10.9186 13.9176C10.8721 13.8747 10.835 13.823 10.8097 13.7656C10.7844 13.7082 10.7714 13.6463 10.7716 13.5838V10.1457C10.7716 10.0479 10.8025 9.95239 10.86 9.8723C10.9175 9.7922 10.9988 9.73138 11.0929 9.69811C11.1879 9.66958 11.2897 9.67076 11.3839 9.70149C11.4782 9.73222 11.5603 9.79097 11.6188 9.86954L13.3231 12.1552V10.041C13.3231 9.91467 13.3744 9.79355 13.4657 9.70425C13.557 9.61495 13.6808 9.56478 13.81 9.56478C13.9391 9.56478 14.063 9.61495 14.1543 9.70425C14.2456 9.79355 14.2969 9.91467 14.2969 10.041V13.5838ZM17.7346 13.9647H15.3974C15.3356 13.966 15.2742 13.9551 15.2169 13.9326C15.1596 13.9101 15.1076 13.8764 15.0639 13.8337C15.0202 13.791 14.9858 13.7401 14.9628 13.6841C14.9398 13.628 14.9286 13.568 14.9299 13.5076V9.96477C14.9299 9.84353 14.9792 9.72726 15.0668 9.64153C15.1545 9.5558 15.2734 9.50764 15.3974 9.50764H17.6567C17.7859 9.50764 17.9097 9.5578 18.001 9.64711C18.0924 9.73641 18.1437 9.85753 18.1437 9.98382C18.1437 10.1101 18.0924 10.2312 18.001 10.3205C17.9097 10.4098 17.7859 10.46 17.6567 10.46H15.8648V11.3076H17.3256C17.4496 11.3076 17.5685 11.3558 17.6562 11.4415C17.7438 11.5272 17.7931 11.6435 17.7931 11.7648C17.7931 11.8869 17.7442 12.0042 17.6568 12.0914C17.5694 12.1787 17.4505 12.2289 17.3256 12.2314H15.8648V13.079H17.7346C17.8638 13.079 17.9876 13.1292 18.0789 13.2185C18.1703 13.3078 18.2216 13.4289 18.2216 13.5552C18.2216 13.6815 18.1703 13.8026 18.0789 13.8919C17.9876 13.9812 17.8638 14.0314 17.7346 14.0314V13.9647Z" fill="white" fill-opacity="0.8"/>
</svg>
