<svg width="24" height="25" viewBox="0 0 24 25" fill="none" xmlns="http://www.w3.org/2000/svg">
<path d="M4.98292 7.92361C6.19132 7.92361 7.17092 6.94401 7.17092 5.73561C7.17092 4.52721 6.19132 3.54761 4.98292 3.54761C3.77452 3.54761 2.79492 4.52721 2.79492 5.73561C2.79492 6.94401 3.77452 7.92361 4.98292 7.92361Z" fill="white" fill-opacity="0.8"/>
<path d="M9.23697 9.58149V21.7205H13.006V15.7175C13.006 14.1335 13.304 12.5995 15.268 12.5995C17.205 12.5995 17.229 14.4105 17.229 15.8175V21.7215H21V15.0645C21 11.7945 20.296 9.28149 16.474 9.28149C14.639 9.28149 13.409 10.2885 12.906 11.2415H12.855V9.58149H9.23697ZM3.09497 9.58149H6.86997V21.7205H3.09497V9.58149Z" fill="white" fill-opacity="0.8"/>
</svg>
