<svg width="24" height="25" viewBox="0 0 24 25" fill="none" xmlns="http://www.w3.org/2000/svg">
<path d="M13.5374 12.7267C13.5374 16.4545 10.5069 19.4766 6.76884 19.4766C3.03073 19.4766 0 16.4539 0 12.7267C0 8.99949 3.0305 5.97656 6.76884 5.97656C10.5072 5.97656 13.5374 8.99881 13.5374 12.7267ZM20.9628 12.7267C20.9628 16.2357 19.4476 19.0814 17.5784 19.0814C15.7092 19.0814 14.194 16.2357 14.194 12.7267C14.194 9.21769 15.709 6.37197 17.5782 6.37197C19.4474 6.37197 20.9628 9.21678 20.9628 12.7267ZM24 12.7267C24 15.8699 23.4672 18.4195 22.8097 18.4195C22.1522 18.4195 21.6196 15.8705 21.6196 12.7267C21.6196 9.5828 22.1524 7.03386 22.8097 7.03386C23.4669 7.03386 24 9.58258 24 12.7267Z" fill="white" fill-opacity="0.8"/>
</svg>
