<svg width="24" height="25" viewBox="0 0 24 25" fill="none" xmlns="http://www.w3.org/2000/svg">
<path d="M16.0009 3.65649C13.2679 3.65649 11.0009 5.87448 11.0009 8.59448C11.0009 8.94748 11.0179 9.05052 11.0179 9.28052C8.65994 9.16452 7.14892 8.37952 4.95593 6.19952C4.75993 6.00552 4.50694 5.91049 4.25094 5.90649C4.20494 5.90549 4.05094 5.90649 4.00094 5.90649C3.44894 5.90649 3.00094 6.35449 3.00094 6.90649C3.00094 7.33549 3.00094 9.17349 3.00094 9.65649C3.00094 10.8645 3.40292 12.0035 4.02392 12.8535C4.02392 12.8615 4.00094 12.7505 4.00094 13.6565C4.00094 15.2065 4.63094 16.3665 5.67794 17.0565C5.33294 17.5945 4.39992 17.9825 3.65792 18.3125C3.21392 18.5095 2.87093 18.6585 2.68893 18.7195C2.46693 18.7955 2.28092 18.9695 2.15792 19.1875C2.14992 19.2005 2.13294 19.2055 2.12594 19.2195C2.11894 19.2325 2.10194 19.2355 2.09494 19.2505C1.99094 19.4815 1.99493 19.7155 2.06393 19.9375C2.06693 19.9485 2.05993 19.9585 2.06393 19.9695C2.14093 20.1915 2.31392 20.3765 2.53292 20.5005C2.54492 20.5075 2.55093 20.5245 2.56393 20.5315C2.57793 20.5385 2.58094 20.5565 2.59494 20.5625C4.19593 21.2835 6.06194 21.6565 8.00094 21.6565C14.6989 21.6565 20.2519 16.8185 21.0039 9.9165L21.9079 8.09448C22.2399 7.42948 21.7449 6.65649 21.0009 6.65649C21.0229 6.65649 20.9949 6.65749 20.9079 6.62549C20.7129 6.55249 20.4939 6.39349 20.2829 6.15649C20.1909 6.05349 20.0879 5.9485 20.0009 5.8125C19.0549 4.4505 17.6279 3.65649 16.0009 3.65649ZM16.0009 5.65649C16.9559 5.65649 17.7859 6.10249 18.3449 6.90649C18.4659 7.09849 18.6179 7.31649 18.7829 7.50049C19.0579 7.80949 19.9829 8.14948 19.9829 8.14948C19.9829 8.14948 19.4299 9.18751 19.0109 9.67151C18.4819 15.3045 13.7919 19.6565 8.00094 19.6565C7.30994 19.6565 6.35094 19.6425 5.45394 19.4775C7.31994 18.9195 9.00094 16.9325 9.00094 16.6565C7.01294 16.6565 6.27393 15.2545 6.08193 14.3445C6.66693 14.5665 8.22494 14.7305 9.01894 14.1525C6.08194 12.9615 5.00094 11.4625 5.00094 9.65649C5.00094 9.53049 5.00094 9.1995 5.00094 8.9375C7.17794 10.7565 8.95193 11.2985 12.0049 11.2765C12.3739 11.2745 13.0039 11.0045 13.0009 10.2815C12.9999 10.0035 13.0009 9.86848 13.0009 8.59448C13.0009 6.98948 14.3619 5.65649 16.0009 5.65649ZM17.0009 7.65649C16.4489 7.65649 16.0009 8.10449 16.0009 8.65649C16.0009 9.20849 16.4489 9.65649 17.0009 9.65649C17.5539 9.65649 18.0009 9.20849 18.0009 8.65649C18.0009 8.10449 17.5539 7.65649 17.0009 7.65649Z" fill="white"/>
</svg>
