<svg width="24" height="25" viewBox="0 0 24 25" fill="none" xmlns="http://www.w3.org/2000/svg">
<path d="M5.99902 5.60938C3.78992 5.60938 1.99902 7.40037 1.99902 9.60938V15.6094C1.99902 17.8184 3.78992 19.6094 5.99902 19.6094H17.999C20.2081 19.6094 21.999 17.8184 21.999 15.6094V9.60938C21.999 7.40037 20.2081 5.60938 17.999 5.60938H5.99902ZM10.7133 9.60938C10.8376 9.60938 10.9463 9.64437 11.0481 9.70337C11.106 9.73637 14.6689 11.9354 14.7981 12.0704C14.9278 12.2064 14.999 12.4014 14.999 12.6094C14.999 12.7414 14.9664 12.8534 14.9097 12.9614C14.8635 13.0484 14.8055 13.1334 14.7311 13.1954C14.6095 13.2964 11.0256 15.5304 10.9365 15.5624C10.8637 15.5884 10.7945 15.6094 10.7133 15.6094C10.5348 15.6094 10.3697 15.5354 10.2445 15.4214C10.093 15.2844 9.99903 15.0864 9.99903 14.8594C9.99903 14.6544 9.99903 10.5634 9.99903 10.3594C9.99903 9.94537 10.3188 9.60938 10.7133 9.60938Z" fill="white"/>
</svg>
