<svg width="1330" height="316" viewBox="0 0 1330 316" fill="none" xmlns="http://www.w3.org/2000/svg">
<path d="M1178.24 129.915C1178.28 127.428 1177.04 125.235 1174.75 124.49C1172.15 123.66 1169.6 123.059 1166.98 122.331C1166.47 122.19 1165.97 122.051 1165.87 122.786C1165.82 122.987 1166.29 123.227 1166.6 123.312C1167.61 123.592 1167.58 124.456 1167.24 124.907C1166.58 125.702 1165.73 126.438 1164.51 126.1C1163.51 125.82 1163.83 125.045 1164.13 124.365C1164.75 122.907 1163.97 122.582 1162.76 122.246C1160.75 121.685 1158.75 122.217 1156.84 122.448C1154.03 122.755 1151.15 123.364 1148.65 124.52C1145.64 125.964 1142.15 126.41 1139.68 128.658C1138.06 130.161 1136.03 129.271 1134.26 129.759C1129.55 131.061 1125.2 133.434 1120.31 133.817C1118.2 133.987 1116.83 135.785 1114.62 135.926C1112.6 136.129 1110.91 137.939 1108.37 137.671C1106.47 137.468 1104.41 138.636 1102.38 137.741C1102.07 137.656 1101.61 137.75 1101.46 137.923C1100.47 139.498 1098.32 138.247 1097.16 140.095C1096.33 141.499 1094.04 138.797 1092.3 140.378C1092.01 140.622 1090.43 140.074 1090.56 140.76C1091.45 143.833 1088.54 143.349 1087.35 144.105C1084.51 145.711 1084.23 145.526 1082.82 142.414C1082.48 141.666 1082.66 140.629 1082.17 140.06C1081.85 139.646 1080.91 139.494 1080.15 139.5C1079.62 139.459 1079.16 140.312 1079.28 140.669C1080.59 142.99 1079.43 143.646 1077.35 143.72C1077.15 143.665 1077.07 144.729 1076.93 145.231C1074.22 143.615 1076.01 141.499 1076.24 139.499C1076.54 139.582 1076.95 139.695 1077.25 139.779C1077.58 139.762 1078.11 139.803 1078.14 139.702C1078.41 139.123 1078.03 138.91 1077.53 138.77C1077.23 138.687 1076.82 138.574 1076.52 138.49C1076.59 137.855 1077.31 137.191 1076.65 136.46C1076.15 135.891 1075.39 135.895 1074.82 136.386C1074.4 136.707 1073.92 136.897 1073.4 137.192C1070.24 138.809 1067.45 137.489 1066.58 133.986C1069.17 132.863 1066.41 132.637 1066.37 131.973C1066.22 130.953 1066.73 129.9 1066.88 128.963C1067.06 127.927 1066.33 127.831 1065.59 127.739C1062.95 127.112 1060.97 126.016 1060.99 123.958C1061.02 121.901 1060.29 120.612 1059.16 119.211C1058.42 118.352 1058.53 117.187 1060.23 117.335C1060.56 117.318 1060.92 117.201 1061.24 117.184C1061.1 116.923 1061.01 116.466 1060.81 116.41C1060.13 116.113 1059.4 116.016 1058.79 115.849C1056.6 115.131 1056.6 115.131 1058.11 112.831C1058.35 112.357 1058.39 111.823 1058.53 111.321C1058.67 110.814 1058.81 110.312 1059.43 110.81C1059.61 110.966 1059.56 111.501 1059.48 111.802C1059.3 112.838 1059.98 113.135 1060.64 113.103C1061.51 113.127 1061.55 112.162 1061.72 111.555C1061.92 110.847 1061.96 110.317 1061.11 109.864C1059.51 108.982 1060.12 106.764 1058.43 105.423C1056.98 104.367 1055.85 102.965 1054.02 102.131C1052.86 101.595 1052.05 99.8433 1052.09 98.1209C1052.1 96.9218 1051.47 95.6608 1049.87 95.5471C1048.27 95.427 1045.08 97.1506 1046.79 92.9494C1046.82 92.849 1046.43 92.3081 1046.12 92.223C1042.89 91.3263 1039.56 90.4002 1036.34 89.5034C1036.03 89.4198 1035.64 89.6358 1035.36 89.8811C1034.98 90.0985 1034.3 90.5648 1034.37 90.6931C1034.64 91.3129 1035.19 92.4457 1035.42 92.4011C1038.26 91.5579 1038.59 94.6927 1040.35 95.3969C1041.13 95.7218 1041.53 97.0275 1041.09 98.2139C1040.65 99.3954 1040.09 99.4553 1039.08 99.175C1038.88 99.1192 1038.55 99.8992 1038.21 100.345C1037.43 101.218 1036.62 100.993 1036.21 100.119C1035.95 99.4988 1034.62 98.8058 1036.21 98.1611C1036.57 98.0455 1036.77 97.3379 1037.01 96.859C1037.25 96.3851 1038.59 96.6487 1037.9 95.5884C1037.66 95.304 1037.05 95.1352 1036.44 95.3972C1036.18 95.5407 1035.6 96.4657 1035.22 95.4954C1034.36 93.0849 1033.04 92.3869 1030.9 94.1887C1029.63 93.29 1027.96 94.2343 1026.66 93.4409C1024.2 92.1043 1021.49 93.6385 1018.98 92.5026C1018 92.1219 1017.95 93.086 1017.68 93.6653C1016.59 95.6434 1016.36 95.6866 1015.17 93.7235C1014.27 92.2783 1013.7 92.3382 1011.92 92.4963C1005.52 93.2164 999.643 95.604 993.559 97.1725C990.056 98.0478 986.319 98.9662 982.788 99.9417C979.358 100.945 975.799 102.021 972.059 102.176C968.423 102.361 964.82 103.208 961.163 103.062C959.365 104.843 957.29 102.526 955.186 103.466C953.691 104.137 951.424 102.528 949.732 101.188C948.586 100.215 946.706 100.347 945.118 99.7972C941.842 98.6704 938.29 98.5537 935.384 96.1135C933.82 94.7004 932.632 95.4566 930.258 97.7323C929.946 98.078 929.287 98.8733 928.568 98.3491C928.045 97.8792 927.812 97.1605 927.674 96.4682C927.658 96.1392 928.128 95.6157 928.545 95.2993C929.528 94.4859 930.003 93.9638 928.527 93.0129C922.879 89.4865 918.082 84.4558 911.396 82.7054C910.889 82.5646 910.024 82.5458 909.88 82.2843C908.563 79.2045 905.464 78.2353 903.148 76.3968C899.836 73.8437 896.516 71.7264 892.248 70.6483C892.147 70.6204 892.348 70.6762 892.449 70.704C892.432 70.3751 892.517 70.069 892.372 69.8124C892.255 69.4556 891.926 69.4723 891.709 69.8444C891.681 69.9448 891.902 70.336 892.248 70.6483C892.692 72.1825 890.98 72.4689 890.543 73.6504C890.274 74.2297 890.344 75.552 889.637 75.3554C888.556 74.9468 889.594 73.9327 889.59 73.1693C889.574 72.8403 889.514 72.2777 889.313 72.2219C888.232 71.8134 887.296 71.6613 889.025 70.5148C891.402 69.0024 891.302 68.9745 889.115 67.0586C887.973 66.0924 886.37 65.209 885.438 65.8203C883.478 67.0163 881.851 66.9966 879.89 66.2352C878.229 65.5575 876.062 67.8904 874.835 65.2629C874.423 64.3916 873.942 65.3445 873.886 65.5452C873.944 67.3019 871.747 67.7778 871.6 69.4723C871.536 70.8707 870.412 70.2285 869.575 70.1093C867.73 69.7048 868.675 68.6592 869.267 67.3049C869.451 67.0317 869.122 67.0484 868.966 67.2212C868.654 67.5668 868.798 67.8284 869.256 67.7342C869.485 67.6896 869.674 67.4178 869.93 67.2729C869.93 67.2729 869.787 67.0114 869.295 67.2045C865.476 67.662 861.962 68.9666 861.239 71.1603C860.606 73.0494 859.952 73.8461 857.983 74.2774C856.249 74.6605 856.189 76.8223 857.738 77.9014C858.084 78.2137 858.819 78.31 859.159 77.864C859.606 77.4422 859.38 76.2927 860.26 76.6455C860.867 76.8143 860.437 77.565 860.296 78.0718C859.641 80.8196 859.154 81.0141 856.743 79.9061C856.47 79.7221 855.94 79.683 855.891 79.4529C855.296 78.0929 853.936 77.4989 852.904 78.0823C851.871 78.6656 851.886 80.1887 851.75 81.4538C851.738 81.8882 852.362 82.3859 852.222 82.8878C852.126 83.6232 851.857 84.2025 850.848 83.9222C849.94 83.6698 849.115 83.1162 848.296 83.321C847.477 83.5258 846.589 83.6088 845.87 83.8415C844.565 84.2408 846.599 85.1305 845.945 85.9272C845.47 86.4493 845.882 87.3206 845.006 87.7311C844.262 88.0706 843.475 88.9384 842.552 88.3519C841.8 87.9267 842.125 87.1467 842.32 86.4441C842.461 85.9373 842.613 85.0011 842.183 84.9899C841.548 84.9215 840.644 85.4324 840.403 85.9114C839.598 87.6392 838.502 89.621 839.09 91.4118C839.605 93.0794 839.137 93.5979 837.976 94.2537C837.59 94.4761 837.989 95.7818 836.933 95.2664C836.732 95.2106 836.983 94.3074 837.023 93.7726C837.062 93.2429 837.46 92.5912 836.986 92.3513C836.507 92.1101 836.239 92.6844 836.098 93.1912C835.623 94.9024 835.146 96.6186 834.669 98.3348C834.5 98.942 834.115 99.1594 833.408 98.9628C832.801 98.794 832.31 98.2252 832.624 97.8745C833.892 96.0539 832.467 94.1389 832.972 92.3224C833.197 91.5144 833.008 91.0243 832.1 90.7719C830.914 90.334 831.46 89.9451 832.231 89.5053C833.363 88.9498 833.753 88.7338 833.366 86.9938C832.679 83.981 831.492 80.8238 832.594 77.6543C833.06 76.3674 833.079 75.5023 831.552 74.7536C830.872 74.4566 831.788 73.5163 831.65 72.824C831.524 70.9455 834.358 73.2524 833.799 71.3562C833.31 69.5933 835.296 69.491 835.396 69.5189C837.707 70.599 839.072 68.7998 840.795 68.0841C843.26 67.0339 844.597 64.5782 847.163 63.5509C848.397 63.0233 848.209 61.3441 848.517 60.2351C848.838 58.6917 849.702 58.7155 850.783 59.1241C851.262 59.3654 852.02 59.3599 852.133 58.9534C852.273 58.4516 851.309 58.3999 851.063 58.1155C850.352 57.1555 850.812 55.1103 851.676 55.1341C852.539 55.1579 853.99 55.0151 854.131 56.4707C854.209 57.3573 853.695 57.6522 855.246 57.5373C857.659 57.4512 859.301 55.8425 861.427 55.2333C865.448 54.0696 869.891 54.1098 873.47 51.4068C874.586 50.5224 876.21 52.4981 877.394 50.9786C880.003 52.1359 883.015 50.6919 885.543 52.1568C887.521 53.2471 889.629 52.314 891.558 52.4174C893.053 52.5032 894.225 51.418 893.925 54.0537C893.885 54.5834 895.144 55.1496 895.634 55.7234C895.956 56.1375 896.101 56.394 896.341 55.92C896.895 55.0954 897.288 53.6803 898.506 54.7812C899.475 55.5962 898.403 56.7093 898.223 57.7459C898.104 58.5831 898.165 59.1407 899.101 59.2927C901.704 59.6918 903.875 61.2737 906.183 62.3474C907.241 62.8577 908.1 62.8801 907.65 64.496C907.398 65.4042 909.142 65.7809 909.734 65.6156C913.063 64.5893 915.853 66.6675 918.891 67.0741C919.521 67.1411 919.843 67.5602 919.804 68.0899C919.707 68.8254 919.511 69.5329 918.402 69.2247C917.422 68.839 917.025 69.4907 917.029 70.2541C916.877 71.1903 917.713 71.3144 918.42 71.5111C921.346 72.3242 923.3 74.2783 925.516 76.0888C927.727 77.8979 930.243 79.7971 932.929 81.0841C933.407 81.3254 934.194 81.2195 934.444 81.5053C936.757 85.2998 941.111 84.8827 944.348 86.5392C948.131 88.5688 952.093 89.5619 956.099 90.7835C957.514 91.1768 958.707 91.184 960.113 90.8125C963.845 89.8927 967.931 90.05 971.196 87.6977C974.873 88.936 977.048 85.4104 980.337 84.9138C983.499 84.4896 986.39 82.6823 989.491 81.7005C991.382 81.1395 993.491 80.2014 995.235 80.578C997.787 81.1792 999.457 79.4701 1001.55 78.9663C1004.34 78.3238 1006.41 75.9694 1009.73 76.1307C1012.52 76.2529 1015.16 74.5956 1018.16 75.5369C1019.17 75.8172 1020.5 75.3175 1021.5 74.8345C1022.79 74.1062 1024.03 74.342 1025.48 74.2042C1028.26 73.9974 1031.02 73.0259 1033.71 72.3619C1034.53 72.1521 1035.08 71.3275 1036.17 71.736C1038.3 72.6586 1040.46 72.7138 1042.69 71.7068C1043.6 71.1959 1044.39 71.8498 1045.2 72.0744C1047.85 72.7034 1050.35 73.5039 1052.97 74.2333C1057.91 75.607 1063.52 79.6696 1066.76 84.0454C1067.47 85.0054 1068.26 86.0937 1069.24 86.4744C1070.39 87.0112 1070.9 87.9154 1071.18 88.8628C1073.49 95.8088 1077.93 101.713 1081.27 108.075C1082.49 110.368 1083.85 112.489 1083.96 115.238C1083.95 115.667 1084.34 116.208 1084.33 116.644C1084.57 118.884 1089.78 116.964 1087.9 121.003C1089.04 123.168 1091.05 123.729 1093.22 124.546C1097.75 126.242 1098.88 126.445 1102.99 124.98C1103.47 124.791 1103.97 124.167 1104.38 124.28C1109.83 125.795 1114.26 122.351 1118.97 121.053C1124.49 119.546 1129.52 116.705 1135.36 116.046C1137.93 115.782 1140.15 113.679 1143.06 113.728C1145.78 113.727 1148 111.624 1150.76 111.087C1152.26 110.743 1153.5 110.216 1155.27 110.492C1158.71 111.016 1162.11 109.35 1165.68 109.796C1165.98 109.879 1166.38 109.234 1166.58 109.29C1170.85 111.125 1175.76 109.885 1179.87 111.898C1183.51 113.666 1186.96 115.712 1190.45 117.658C1190.55 117.686 1190.56 118.02 1190.76 118.076C1192.15 119.333 1195.21 116.16 1195.43 119.265C1195.6 121.808 1197.92 122.023 1198.41 123.786C1198.55 124.478 1199.01 125.147 1199.88 125.171C1203.3 125.36 1204.68 128.246 1206.45 130.473C1208.32 132.733 1210.63 134.572 1213.2 135.507C1216.17 136.549 1217.97 138.676 1220.05 140.564C1222.14 142.445 1223.94 144.573 1226.41 146.238C1227.61 147.01 1228.58 147.82 1229.89 148.184C1230.7 148.408 1231.66 148.46 1232.04 149.436C1233.16 152.465 1236.18 152.542 1238.26 152.467C1240.14 152.342 1241.69 152.658 1243.3 153.106C1244.92 153.555 1245.56 153.194 1245.78 151.621C1246.07 150.183 1247.12 151.123 1247.8 150.989C1249.05 150.795 1250.81 153.458 1251.65 150.433C1251.77 150.026 1252.3 150.065 1252.45 150.323C1252.56 150.685 1252.48 150.986 1252.5 151.315C1252.62 152.435 1250.55 154.033 1253.06 154.733C1254.28 155.07 1255.29 154.92 1256.52 154.828C1257.87 154.657 1258.18 154.312 1258.59 153.226C1259.11 151.743 1260.27 151.087 1261.96 151.665C1264.53 152.595 1266.83 152.91 1267.61 149.321C1267.72 148.92 1268.91 148.164 1269.85 148.316C1271.19 148.58 1270.58 149.605 1270.68 150.391C1270.82 151.082 1271.48 151.05 1271.99 151.191C1272.89 151.443 1272.94 147.758 1274.61 150.726C1275.2 151.759 1276.85 150.479 1278 150.252C1279.69 150.071 1281.82 150.226 1282.69 147.863C1282.99 147.183 1284.28 146.455 1285.51 147.121C1286.18 147.417 1286.79 147.586 1287.27 146.633C1287.92 145.078 1288.67 145.503 1289.48 146.491C1290.2 147.446 1290.83 148.278 1291.93 149.015C1293.55 150.227 1295.2 147.426 1296.3 149.363C1297.17 150.908 1298.75 150.693 1299.96 151.029C1302.55 151.859 1302.58 151.758 1304.3 149.085C1304.64 148.639 1304.96 148.29 1305.37 147.972C1306.33 147.261 1306.94 147.428 1307.19 148.477C1307.54 149.553 1308.07 150.786 1307.99 151.85C1307.89 153.017 1308.52 153.084 1309.21 153.71C1310.35 154.681 1310.06 155.36 1308.81 156.748C1306.76 159.007 1303.86 159.286 1301.7 161.19C1300.84 161.93 1298.71 161.77 1297.3 161.378C1295.15 160.889 1293.39 162.141 1291.34 162.11C1290.47 162.086 1289.24 162.614 1289 163.856C1288.57 165.801 1287.25 165.866 1285.47 166.025C1281.64 166.482 1277.95 166.867 1274.19 167.885C1271.83 168.539 1269.15 168.01 1266.88 169.552C1263.63 168.325 1262.3 170.776 1260.78 172.748C1260.43 173.192 1260.08 173.309 1259.44 173.241C1255.05 172.242 1254.13 172.419 1250.9 174.241C1249.77 174.797 1248.64 175.349 1247.68 176.06C1244.57 178.24 1241.31 178.641 1237.8 177.226C1237.12 176.929 1236.21 176.677 1236.06 177.613C1235.59 180.851 1232.94 182.943 1232.38 186.154C1231.99 188.327 1232.47 190.525 1231.95 192.776C1231.1 196.231 1228.44 198.752 1227.89 202.297C1227.67 203.869 1224.18 204.309 1222.79 203.052C1222.52 202.868 1222.32 202.382 1222.38 202.176C1222.84 200.131 1223.81 198.227 1222.87 196.117C1225.21 195.139 1224.22 192.038 1225.83 190.965C1227.43 189.886 1226.56 189.104 1226.36 187.849C1226.17 186.601 1227.63 185.27 1226.6 183.898C1227.61 182.979 1228.15 181.827 1228.41 180.488C1228.5 179.752 1228.67 179.145 1227.66 178.865C1226.66 178.584 1226.46 179.292 1226.26 180C1226.18 180.301 1226.07 180.707 1225.98 181.008C1225.32 184.955 1223.79 188.113 1220.12 190.359C1218.71 191.16 1218.46 190.87 1217.72 190.016C1216.91 189.028 1217.29 188.047 1217.57 187.038C1218.97 181.995 1220.35 177.052 1221.75 172.004C1222.2 170.393 1221.98 170.002 1220.43 168.924C1216.79 166.387 1213.7 163.032 1210.4 160.049C1207.62 157.535 1205.23 154.805 1203.04 151.702C1202.58 151.028 1202.16 150.586 1201.42 150.489C1198.76 150.296 1197.51 148.532 1196.51 146.296C1195.81 144.907 1195.29 143.244 1193.04 144.684C1192.37 145.145 1191.53 144.263 1191.86 143.054C1192.12 142.145 1193.17 140.698 1192.02 140.161C1190.83 139.723 1190.68 137.94 1189.12 138.049C1188.47 138.087 1187.71 137.657 1187.11 137.488C1184.66 136.921 1182.44 136.303 1181.37 133.504C1181.47 131.575 1180.01 130.19 1178.24 129.915ZM1088.19 141.079C1088.53 140.633 1088.36 140.477 1087.82 140.437C1087.39 140.426 1086.89 140.285 1086.43 140.374C1086.1 140.39 1086.09 140.825 1086.46 141.037C1087.01 141.406 1087.61 141.574 1089.21 139.736C1088.95 139.881 1088.63 139.898 1088.47 140.071C1088.16 140.421 1088.3 140.678 1088.76 140.589C1088.99 140.544 1089.18 140.267 1089.43 140.122C1089.41 140.223 1089.26 139.966 1088.19 141.079ZM1063.6 112.622C1063.79 113.109 1063.84 113.337 1063.96 113.694C1064.27 113.348 1064.58 113.004 1064.83 112.525C1064.88 112.325 1064.66 111.938 1064.54 111.576C1064.2 112.028 1063.89 112.373 1063.6 112.622ZM1083.22 134.703C1082.72 134.564 1082.28 134.551 1082.22 135.181C1082.16 135.382 1082.64 135.628 1082.94 135.712C1083.42 135.953 1083.88 135.859 1083.94 135.229C1083.97 135.129 1083.5 134.889 1083.22 134.703ZM1275.19 143.168C1274.79 141.863 1273.17 141.848 1272.77 140.537C1272.65 140.18 1271.41 139.945 1270.75 139.977C1269.86 140.06 1269.94 140.951 1269.74 141.654C1269.41 142.868 1269.02 143.086 1268.29 141.797C1267.71 140.764 1266.81 141.275 1266 141.809C1265.72 142.059 1264.54 142.381 1265.32 142.706C1267.11 143.316 1266.95 145.445 1268.41 146.067C1269.76 146.66 1269.55 145.082 1270.2 144.715C1271.3 144.26 1271.06 145.502 1271.39 145.916C1271.95 146.613 1272.28 147.795 1273.31 147.212C1274.21 146.701 1274.85 145.575 1275.69 144.501C1275.57 144.144 1275.38 143.659 1275.19 143.168ZM1288 130.315C1287.23 128.798 1285.91 127.67 1284.35 127.021C1283.17 126.584 1282.37 127.123 1282.3 128.516C1282.32 130.044 1284.33 132.992 1285.85 132.982C1286.84 132.929 1287.92 132.579 1288.25 131.365C1288.14 131.008 1288.12 130.679 1288 130.315ZM1290.93 137.763C1290.58 138.643 1290.75 139.993 1289.03 139.516C1288.52 139.376 1288.11 139.693 1287.94 140.3C1287.77 140.908 1288.04 141.521 1288.47 141.534C1290.35 141.408 1290.67 143.779 1292.4 143.82C1293.26 143.844 1294.18 143.667 1293.81 143.019C1292.92 141.145 1294.78 138.394 1292.22 137.034C1292.02 137.742 1291.64 137.959 1290.93 137.763ZM1316.31 170.792C1316.61 170.113 1316.72 169.711 1317.72 169.658C1320.23 169.599 1320.26 169.499 1319.3 167.056C1318.85 165.957 1318.45 165.844 1317.44 166.758C1317.17 166.901 1316.79 167.119 1316.49 167.035C1314.5 166.374 1314.61 168.687 1313.48 169.242C1312.71 169.682 1313.36 170.843 1314.43 170.923C1315.08 171.32 1315.86 171.643 1316.31 170.792ZM841.634 63.1007C842.013 63.3141 843.395 63.8063 842.915 62.8082C842.505 61.9319 842.937 59.987 842.291 60.348C840.516 61.2708 839.208 59.7128 837.775 60.1795C837.183 60.3448 836.715 60.8633 836.072 61.2306C836.635 61.9277 836.584 62.8918 837.668 63.3068C839.002 62.8071 840.308 62.4077 841.634 63.1007ZM860.848 92.1341C860.867 91.269 862.195 90.011 860.483 89.5354C859.269 89.1979 858.214 89.883 857.716 91.2638C857.52 91.9714 857.223 92.651 857.156 93.2811C857.009 94.2187 857.84 94.3415 858.447 94.5102C859.154 94.7069 859.829 95.0025 860.187 94.1235C860.427 93.6496 860.467 93.1148 860.607 92.613C860.736 92.5355 860.792 92.3348 860.848 92.1341ZM1274.64 140.078C1274.61 140.942 1276.36 142.082 1277.24 141.671C1277.98 141.338 1278.04 140.374 1278.83 139.834C1280.18 138.905 1279.85 138.158 1278.23 137.709C1275.53 136.851 1274.86 137.319 1274.64 140.078ZM1262.56 144.441C1261.66 143.754 1260.16 144.859 1259.53 146.319C1259.18 147.195 1259.19 147.958 1260.3 148.267C1261.74 148.559 1263.4 148.043 1263.81 146.963C1263.99 145.925 1263.38 144.994 1262.56 144.441ZM1046.09 102.103C1045.12 102.485 1044.17 102.763 1043.19 103.145C1044.45 103.711 1042.59 105.692 1044.54 106.125C1045.98 106.418 1047.74 105.929 1048.11 104.619C1048.27 103.254 1046.03 103.496 1046.09 102.103ZM1307.68 144.374C1308.54 144.398 1308.5 142.972 1308.6 142.235C1308.69 141.504 1307.71 141.124 1307.1 141.386C1305.86 141.913 1304.82 142.926 1303.38 142.634C1303.28 142.605 1302.82 143.458 1302.71 143.864C1302.65 144.065 1303.13 144.306 1303.38 144.59C1304.76 144.319 1306.18 144.283 1307.68 144.374ZM914.496 85.6321C913.53 85.5854 912.568 84.3396 911.747 85.7385C911.138 86.7638 912.268 88.1644 913.726 88.7913C914.707 89.172 915.394 89.0333 915.602 87.8964C916.066 86.6145 915.99 85.7229 914.496 85.6321ZM1292.22 137.034C1292.31 136.299 1293.13 135.331 1292.08 134.822C1291.32 134.397 1290.49 134.272 1289.65 134.148C1288.42 133.912 1288.16 134.821 1288.47 135.668C1288.79 136.845 1289.51 137.8 1291 137.891C1291.13 137.055 1291.52 136.839 1292.22 137.034ZM1282.96 135.548C1281.83 134.911 1280.71 135.032 1279.63 135.816C1278.54 136.6 1280.56 137.161 1279.8 137.93C1280.97 138.8 1282.07 137.582 1283.21 137.79C1283.2 137.026 1283.99 136.157 1282.96 135.548ZM1285.48 137.442C1284.44 137.262 1283.56 137.673 1282.94 138.369C1282.1 139.438 1283.17 141.04 1283.7 141.079C1284.87 141.187 1285.93 140.503 1286.06 139.238C1286.32 138.33 1286.51 137.622 1285.48 137.442ZM1049.31 122.991C1049.74 123.004 1050.3 122.942 1050.76 122.855C1050.6 122.264 1050.19 122.151 1049.72 121.911C1048.84 121.559 1049.26 120.806 1049.33 120.176C1049.32 119.842 1048.66 119.445 1048.26 119.333C1047.76 119.193 1047.44 119.543 1047.17 120.118C1046.46 121.877 1046.69 122.263 1048.93 122.779C1048.98 123.008 1049.18 123.064 1049.31 122.991ZM837.546 50.4448C837.965 48.9343 839.275 49.2984 840.252 48.9157C840.87 48.6551 840.922 47.691 840.4 47.2162C839.603 46.5623 838.771 47.2015 838.102 47.6642C837.07 48.2476 837.09 49.3399 837.044 50.3053C837.016 50.4057 837.189 50.5618 837.261 50.6901C837.834 50.9628 837.433 50.8513 837.546 50.4448ZM862.99 84.037C862.379 83.1049 859.955 82.4313 858.923 83.0147C858.666 83.1596 858.876 83.9802 858.865 84.4095C860.451 83.0015 860.741 85.477 861.935 85.4791C862.493 85.4178 862.883 85.2018 862.923 84.6671C863.007 84.366 863.062 84.1653 862.99 84.037ZM1301.18 145.066C1300.17 144.786 1299.08 145.57 1298.97 145.977C1298.82 146.913 1299.33 147.812 1300.41 148.221C1301.32 148.473 1301.52 147.77 1301.71 147.063C1301.81 146.327 1302.49 145.43 1301.18 145.066ZM1281.65 143.006C1280.91 142.915 1280.07 142.027 1279.41 143.253C1279.17 143.732 1279.94 146.013 1280.27 145.996C1281.07 145.887 1281.91 145.582 1282.01 145.61C1282.52 143.793 1282.49 143.13 1281.65 143.006ZM1154.87 125.6C1154.6 127.367 1156.13 126.928 1156.91 127.253C1157.39 127.494 1157.91 127.199 1157.97 126.569C1158.15 125.532 1157.49 124.801 1156.72 124.047C1156.29 124.794 1155.05 124.563 1154.87 125.6ZM1110.44 141.176C1109.15 141.146 1108.14 141.629 1107.78 142.939C1107.64 143.441 1107.93 143.96 1108.56 144.027C1109.86 144.057 1110.86 143.579 1111.32 142.293C1111.16 141.707 1111.1 141.144 1110.44 141.176ZM886.189 79.9433C886.896 80.14 887.498 80.3073 887.78 79.2937C888.031 78.3904 887.458 78.1177 886.779 77.8206C885.898 77.4679 885.135 77.4719 884.308 78.1125C884.017 78.3614 883.761 78.5063 883.404 78.6234C883.649 78.9078 883.794 79.1643 884.071 79.3548C884.344 79.5388 884.773 79.55 885.08 79.6351C885.581 79.7746 885.882 79.8582 886.189 79.9433ZM1174.8 130.159C1174.54 131.067 1175.25 131.263 1175.96 131.46C1176.77 131.685 1177.62 132.138 1177.99 130.823C1178.21 130.02 1178.22 129.584 1177.46 129.59C1176.39 129.515 1175.27 128.442 1174.8 130.159ZM879.585 75.9294C878.853 75.8396 877.88 75.0231 877.488 76.4332C877.206 77.4469 877.785 77.716 878.521 77.8123C879.228 78.0089 880.254 78.6182 880.915 76.6288C880.9 76.2948 880.32 76.0257 879.585 75.9294ZM1313.59 148.515C1312.53 148.436 1311.45 148.791 1311.3 149.727C1311.2 150.462 1312.35 150.236 1313.03 150.533C1314.01 150.913 1314.21 150.211 1314.38 149.604C1314.42 149.069 1314.23 148.584 1313.59 148.515ZM1092.22 146.114C1091.59 146.046 1090.59 145.336 1090.42 145.938C1090.17 146.847 1090.78 147.779 1091.86 148.187C1092.44 148.456 1092.85 148.139 1093.12 147.559C1093.19 146.929 1093.16 146.266 1092.22 146.114ZM865.454 81.0244C864.764 81.1568 864.901 81.849 864.689 82.2226C864.336 83.103 864.212 83.9388 865.449 84.1745C865.979 84.2136 866.441 84.1259 866.537 83.3904C866.706 82.7832 865.917 80.9367 865.454 81.0244ZM872.261 77.2672C871.871 77.4832 871.53 77.9343 871.39 78.4361C871.194 79.1436 870.512 80.0407 871.894 80.533C872.501 80.7017 872.886 80.4843 873.2 80.1336C873.267 79.5036 872.419 77.0894 872.261 77.2672ZM1295.43 141.512C1295.39 142.047 1295.61 142.432 1296.22 142.6C1297.13 142.853 1297.5 142.301 1297.59 141.571C1297.63 141.036 1297.44 140.55 1296.81 140.483C1295.9 140.23 1295.63 140.81 1295.43 141.512ZM1053.11 108.508C1053.32 108.564 1053.66 108.119 1053.69 108.019C1053.62 107.455 1050.4 106.558 1049.96 106.981C1049.83 107.054 1049.99 107.639 1050.06 107.768C1050.33 107.957 1050.77 107.964 1051.07 108.048C1051.7 108.116 1052.41 108.313 1053.11 108.508ZM1047.65 98.0794C1046.74 97.8269 1046.37 98.3733 1046.27 99.1088C1046.23 99.6435 1046.45 100.03 1047.06 100.197C1048.07 100.477 1048.23 99.8701 1048.43 99.1676C1048.47 98.6329 1048.38 98.1756 1047.65 98.0794ZM1077.94 145.511C1077.61 145.528 1077.07 144.729 1076.79 145.738C1076.53 146.646 1076.34 147.353 1077.55 147.69C1078.15 147.858 1078.54 147.636 1078.79 146.728C1078.93 146.226 1078.77 145.635 1077.94 145.511ZM1307.38 164.611C1307.06 164.962 1306.75 165.307 1306.51 165.786C1306.45 165.987 1306.67 166.372 1306.79 166.734C1307.1 166.383 1307.42 166.039 1307.73 165.688C1307.61 165.331 1307.49 164.973 1307.38 164.611ZM1102.21 148.89C1102.11 148.862 1101.67 149.285 1101.64 149.385C1101.77 150.071 1102.44 150.039 1102.86 150.05C1103.07 150.107 1103.28 149.734 1103.44 149.556C1103.27 148.969 1102.62 149.003 1102.21 148.89ZM1285.52 121.259C1285.59 121.392 1285.74 121.648 1285.74 121.648C1285.97 121.604 1286.29 121.587 1286.53 121.539C1286.46 121.411 1286.38 121.281 1286.23 121.025C1286.01 121.069 1285.78 121.114 1285.52 121.259ZM1076.65 138.418C1076.32 138.434 1075.78 138.394 1075.76 138.494C1075.49 139.073 1075.86 139.285 1076.37 139.426C1076.45 139.125 1076.54 138.819 1076.65 138.418ZM1321.56 148.016C1321.38 147.853 1321.24 147.597 1320.94 147.513C1320.83 147.485 1320.68 147.658 1320.54 147.734C1320.72 147.892 1320.89 148.048 1321.14 148.332C1321.2 148.131 1321.42 148.087 1321.56 148.016Z" fill="#FFAE00"/>
<path d="M575.622 135.915C575.585 133.428 576.824 131.234 579.115 130.49C581.712 129.66 584.264 129.059 586.883 128.331C587.39 128.19 587.892 128.051 587.988 128.786C588.044 128.987 587.57 129.227 587.264 129.312C586.255 129.592 586.279 130.456 586.62 130.907C587.279 131.702 588.133 132.438 589.347 132.1C590.356 131.82 590.032 131.045 589.735 130.365C589.108 128.907 589.888 128.582 591.098 128.246C593.115 127.685 595.111 128.217 597.024 128.448C599.829 128.755 602.712 129.364 605.206 130.52C608.218 131.964 611.71 132.41 614.184 134.658C615.796 136.161 617.83 135.271 619.598 135.759C624.306 137.061 628.663 139.434 633.548 139.817C635.66 139.987 637.03 141.785 639.243 141.926C641.256 142.129 642.954 143.939 645.49 143.671C647.391 143.468 649.451 144.636 651.483 143.741C651.789 143.656 652.248 143.75 652.404 143.923C653.388 145.498 655.537 144.247 656.705 146.095C657.528 147.499 659.82 144.797 661.563 146.378C661.852 146.622 663.435 146.074 663.301 146.76C662.415 149.833 665.324 149.349 666.512 150.105C669.353 151.711 669.626 151.526 671.042 148.414C671.381 147.666 671.201 146.629 671.691 146.06C672.014 145.646 672.95 145.494 673.708 145.5C674.243 145.459 674.696 146.312 674.579 146.669C673.268 148.99 674.428 149.646 676.514 149.72C676.715 149.665 676.794 150.729 676.934 151.231C679.636 149.615 677.854 147.499 677.622 145.499C677.321 145.582 676.914 145.695 676.613 145.779C676.284 145.762 675.75 145.803 675.722 145.702C675.453 145.123 675.831 144.91 676.333 144.77C676.634 144.687 677.041 144.574 677.342 144.49C677.273 143.855 676.548 143.191 677.215 142.46C677.706 141.891 678.469 141.895 679.038 142.386C679.457 142.707 679.942 142.897 680.457 143.192C683.625 144.809 686.41 143.489 687.285 139.986C684.692 138.863 687.451 138.637 687.488 137.973C687.637 136.953 687.128 135.9 686.976 134.963C686.796 133.927 687.531 133.831 688.268 133.739C690.915 133.112 692.892 132.016 692.866 129.958C692.84 127.901 693.569 126.612 694.698 125.211C695.438 124.352 695.33 123.187 693.631 123.335C693.302 123.318 692.945 123.201 692.616 123.184C692.76 122.923 692.849 122.466 693.05 122.41C693.729 122.113 694.465 122.016 695.067 121.849C697.262 121.131 697.262 121.131 695.753 118.831C695.513 118.357 695.472 117.823 695.333 117.321C695.192 116.814 695.052 116.312 694.429 116.81C694.256 116.966 694.296 117.501 694.38 117.802C694.56 118.838 693.88 119.135 693.217 119.103C692.353 119.127 692.307 118.162 692.138 117.555C691.941 116.847 691.902 116.317 692.755 115.864C694.353 114.982 693.737 112.764 695.429 111.423C696.876 110.367 698.011 108.965 699.844 108.131C700.998 107.595 701.814 105.843 701.767 104.121C701.764 102.922 702.392 101.661 703.987 101.547C705.587 101.427 708.779 103.151 707.071 98.9494C707.043 98.849 707.433 98.3081 707.74 98.223C710.966 97.3263 714.298 96.4002 717.525 95.5034C717.826 95.4198 718.216 95.6358 718.5 95.8811C718.885 96.0985 719.561 96.5648 719.488 96.6931C719.223 97.3129 718.667 98.4457 718.438 98.4011C715.598 97.5579 715.27 100.693 713.514 101.397C712.734 101.722 712.335 103.027 712.772 104.214C713.209 105.395 713.771 105.455 714.78 105.175C714.981 105.119 715.306 105.899 715.646 106.345C716.435 107.218 717.242 106.993 717.648 106.119C717.914 105.499 719.24 104.806 717.65 104.161C717.288 104.045 717.091 103.338 716.85 102.859C716.61 102.385 715.273 102.649 715.956 101.588C716.202 101.304 716.809 101.135 717.422 101.397C717.684 101.541 718.265 102.466 718.644 101.495C719.499 99.0849 720.824 98.3869 722.957 100.189C724.226 99.29 725.905 100.234 727.204 99.4409C729.659 98.1043 732.367 99.6385 734.878 98.5026C735.859 98.1219 735.911 99.086 736.18 99.6653C737.27 101.643 737.504 101.687 738.694 99.7235C739.595 98.2783 740.157 98.3382 741.942 98.4963C748.337 99.2164 754.217 101.604 760.302 103.173C763.805 104.048 767.542 104.966 771.072 105.942C774.503 106.945 778.062 108.021 781.802 108.176C785.437 108.361 789.041 109.208 792.698 109.062C794.496 110.843 796.571 108.526 798.675 109.466C800.17 110.137 802.436 108.528 804.129 107.188C805.275 106.215 807.155 106.347 808.743 105.797C812.019 104.67 815.571 104.554 818.476 102.114C820.041 100.7 821.229 101.457 823.602 103.732C823.915 104.078 824.573 104.873 825.293 104.349C825.816 103.879 826.049 103.16 826.186 102.468C826.203 102.139 825.733 101.616 825.315 101.299C824.333 100.486 823.858 99.9638 825.334 99.0129C830.981 95.4865 835.778 90.4558 842.465 88.7054C842.972 88.5646 843.837 88.5458 843.981 88.2843C845.298 85.2045 848.396 84.2353 850.712 82.3968C854.025 79.8437 857.345 77.7264 861.613 76.6483C861.713 76.6204 861.513 76.6762 861.412 76.704C861.429 76.3751 861.344 76.069 861.489 75.8124C861.606 75.4556 861.935 75.4723 862.152 75.8444C862.18 75.9448 861.959 76.336 861.613 76.6483C861.169 78.1825 862.881 78.4689 863.318 79.6504C863.587 80.2297 863.516 81.552 864.224 81.3554C865.305 80.9468 864.266 79.9327 864.27 79.1693C864.287 78.8403 864.347 78.2777 864.548 78.2219C865.629 77.8134 866.565 77.6613 864.835 76.5148C862.458 75.0024 862.559 74.9745 864.745 73.0586C865.888 72.0924 867.491 71.209 868.423 71.8203C870.382 73.0163 872.01 72.9966 873.971 72.2352C875.631 71.5575 877.799 73.8904 879.025 71.2629C879.437 70.3916 879.918 71.3445 879.974 71.5452C879.916 73.3019 882.114 73.7778 882.26 75.4723C882.325 76.8707 883.449 76.2285 884.286 76.1093C886.131 75.7048 885.186 74.6592 884.593 73.3049C884.409 73.0317 884.738 73.0483 884.894 73.2212C885.207 73.5668 885.063 73.8284 884.604 73.7342C884.376 73.6896 884.187 73.4178 883.93 73.2729C883.93 73.2729 884.074 73.0114 884.565 73.2045C888.385 73.662 891.899 74.9666 892.622 77.1603C893.255 79.0494 893.909 79.8461 895.878 80.2774C897.611 80.6605 897.672 82.8223 896.123 83.9014C895.777 84.2137 895.042 84.31 894.701 83.864C894.254 83.4422 894.481 82.2927 893.601 82.6455C892.993 82.8143 893.424 83.565 893.564 84.0718C894.22 86.8196 894.707 87.0141 897.118 85.9061C897.391 85.7221 897.921 85.683 897.97 85.4529C898.565 84.0929 899.925 83.4989 900.957 84.0823C901.989 84.6656 901.975 86.1887 902.11 87.4538C902.123 87.8882 901.499 88.3859 901.638 88.8878C901.735 89.6232 902.004 90.2025 903.013 89.9222C903.921 89.6698 904.745 89.1162 905.565 89.321C906.384 89.5258 907.272 89.6088 907.99 89.8415C909.296 90.2408 907.262 91.1305 907.916 91.9272C908.391 92.4493 907.979 93.3206 908.855 93.7311C909.598 94.0706 910.385 94.9384 911.309 94.3519C912.061 93.9267 911.736 93.1467 911.541 92.4441C911.4 91.9373 911.248 91.0011 911.677 90.9899C912.312 90.9215 913.217 91.4324 913.458 91.9114C914.262 93.6392 915.359 95.621 914.77 97.4118C914.255 99.0794 914.724 99.5979 915.885 100.254C916.271 100.476 915.871 101.782 916.928 101.266C917.129 101.211 916.878 100.307 916.837 99.7726C916.798 99.2429 916.401 98.5912 916.875 98.3513C917.354 98.1101 917.622 98.6844 917.762 99.1912C918.238 100.902 918.715 102.619 919.192 104.335C919.361 104.942 919.745 105.159 920.453 104.963C921.06 104.794 921.551 104.225 921.237 103.875C919.969 102.054 921.394 100.139 920.889 98.3224C920.664 97.5144 920.852 97.0243 921.761 96.7719C922.947 96.334 922.401 95.9451 921.63 95.5053C920.497 94.9498 920.108 94.7338 920.494 92.9938C921.181 89.981 922.369 86.8238 921.266 83.6543C920.801 82.3675 920.782 81.5023 922.309 80.7536C922.989 80.4566 922.073 79.5163 922.211 78.824C922.337 76.9455 919.502 79.2524 920.062 77.3562C920.55 75.5933 918.565 75.491 918.465 75.5189C916.154 76.599 914.789 74.7998 913.066 74.0841C910.601 73.0339 909.264 70.5782 906.697 69.5509C905.464 69.0233 905.652 67.3441 905.343 66.2351C905.023 64.6917 904.159 64.7155 903.078 65.1241C902.599 65.3654 901.84 65.3599 901.727 64.9534C901.588 64.4516 902.552 64.3999 902.797 64.1155C903.509 63.1555 903.049 61.1103 902.185 61.1341C901.321 61.1579 899.871 61.0151 899.729 62.4707C899.651 63.3573 900.166 63.6522 898.615 63.5373C896.202 63.4512 894.56 61.8425 892.434 61.2333C888.413 60.0696 883.969 60.1098 880.391 57.4068C879.275 56.5224 877.651 58.4981 876.466 56.9786C873.858 58.1359 870.846 56.6919 868.318 58.1568C866.339 59.2471 864.231 58.314 862.303 58.4174C860.808 58.5032 859.636 57.418 859.936 60.0537C859.975 60.5834 858.716 61.1496 858.227 61.7234C857.904 62.1375 857.759 62.394 857.52 61.92C856.966 61.0954 856.573 59.6803 855.354 60.7812C854.386 61.5962 855.458 62.7093 855.638 63.7459C855.757 64.5831 855.696 65.1407 854.759 65.2927C852.157 65.6918 849.985 67.2737 847.678 68.3474C846.62 68.8577 845.761 68.8801 846.21 70.496C846.463 71.4042 844.719 71.7808 844.127 71.6156C840.798 70.5893 838.008 72.6675 834.969 73.0741C834.339 73.1411 834.018 73.5602 834.057 74.0899C834.153 74.8254 834.35 75.5329 835.459 75.2247C836.438 74.839 836.836 75.4908 836.832 76.2541C836.984 77.1903 836.148 77.3144 835.44 77.5111C832.515 78.3242 830.56 80.2783 828.344 82.0888C826.134 83.8979 823.618 85.7971 820.932 87.0841C820.453 87.3254 819.667 87.2195 819.417 87.5053C817.103 91.2998 812.749 90.8827 809.512 92.5392C805.73 94.5688 801.768 95.5619 797.761 96.7835C796.346 97.1768 795.154 97.184 793.748 96.8125C790.016 95.8927 785.93 96.05 782.665 93.6977C778.987 94.936 776.813 91.4104 773.523 90.9138C770.362 90.4896 767.47 88.6823 764.37 87.7005C762.479 87.1395 760.37 86.2014 758.625 86.578C756.073 87.1792 754.404 85.4701 752.307 84.9663C749.523 84.3238 747.452 81.9694 744.129 82.1307C741.336 82.2529 738.702 80.5956 735.704 81.5369C734.695 81.8172 733.362 81.3175 732.357 80.8345C731.068 80.1062 729.831 80.342 728.382 80.2042C725.605 79.9974 722.838 79.0259 720.151 78.3619C719.33 78.1521 718.776 77.3275 717.695 77.736C715.562 78.6586 713.399 78.7138 711.168 77.7068C710.264 77.1959 709.467 77.8498 708.659 78.0744C706.007 78.7034 703.515 79.5039 700.891 80.2333C695.948 81.607 690.336 85.6696 687.098 90.0454C686.386 91.0054 685.602 92.0937 684.622 92.4744C683.468 93.0112 682.957 93.9154 682.68 94.8628C680.367 101.809 675.926 107.713 672.586 114.075C671.375 116.368 670.007 118.489 669.901 121.238C669.912 121.667 669.522 122.208 669.529 122.644C669.287 124.884 664.077 122.964 665.962 127.003C664.823 129.168 662.806 129.729 660.644 130.546C656.115 132.242 654.977 132.445 650.872 130.98C650.387 130.791 649.889 130.167 649.483 130.28C644.033 131.795 639.6 128.351 634.893 127.053C629.366 125.546 624.338 122.705 618.501 122.046C615.93 121.782 613.713 119.679 610.796 119.728C608.077 119.727 605.86 117.624 603.105 117.087C601.599 116.743 600.366 116.216 598.594 116.492C595.15 117.016 591.751 115.35 588.183 115.796C587.882 115.879 587.481 115.234 587.28 115.29C583.012 117.125 578.099 115.885 573.988 117.898C570.35 119.666 566.896 121.712 563.415 123.658C563.315 123.686 563.3 124.02 563.099 124.076C561.708 125.333 558.653 122.16 558.429 125.265C558.266 127.808 555.936 128.023 555.448 129.786C555.31 130.478 554.848 131.147 553.984 131.171C550.56 131.36 549.184 134.246 547.414 136.473C545.544 138.733 543.228 140.572 540.661 141.507C537.691 142.549 535.892 144.676 533.806 146.564C531.724 148.445 529.92 150.573 527.453 152.238C526.251 153.01 525.282 153.82 523.972 154.184C523.164 154.408 522.2 154.46 521.817 155.436C520.702 158.465 517.685 158.542 515.6 158.467C513.716 158.342 512.171 158.658 510.56 159.106C508.945 159.555 508.298 159.194 508.083 157.621C507.791 156.183 506.744 157.123 506.058 156.989C504.81 156.795 503.047 159.458 502.206 156.433C502.093 156.026 501.564 156.065 501.414 156.323C501.298 156.685 501.382 156.986 501.365 157.315C501.244 158.435 503.315 160.033 500.796 160.733C499.581 161.07 498.567 160.92 497.341 160.828C495.991 160.657 495.679 160.312 495.269 159.226C494.748 157.743 493.588 157.087 491.899 157.665C489.331 158.595 487.029 158.91 486.248 155.321C486.136 154.92 484.948 154.164 484.011 154.316C482.674 154.58 483.283 155.605 483.177 156.391C483.045 157.082 482.382 157.05 481.875 157.191C480.967 157.443 480.921 153.758 479.249 156.726C478.665 157.759 477.007 156.479 475.857 156.252C474.174 156.071 472.044 156.226 471.171 153.863C470.874 153.183 469.585 152.455 468.354 153.121C467.68 153.417 467.072 153.586 466.591 152.633C465.943 151.078 465.191 151.503 464.379 152.491C463.666 153.446 463.027 154.278 461.929 155.015C460.309 156.227 458.66 153.426 457.566 155.363C456.692 156.908 455.114 156.693 453.904 157.029C451.308 157.859 451.28 157.758 449.558 155.085C449.218 154.639 448.899 154.29 448.487 153.972C447.527 153.261 446.925 153.428 446.67 154.477C446.32 155.553 445.793 156.786 445.872 157.85C445.975 159.017 445.345 159.084 444.649 159.71C443.508 160.681 443.805 161.36 445.055 162.748C447.099 165.007 450.004 165.286 452.16 167.19C453.02 167.93 455.149 167.77 456.559 167.378C458.709 166.889 460.468 168.141 462.525 168.11C463.388 168.086 464.622 168.614 464.859 169.856C465.291 171.801 466.612 171.866 468.392 172.025C472.216 172.482 475.907 172.867 479.671 173.885C482.026 174.539 484.706 174.01 486.978 175.552C490.227 174.325 491.562 176.776 493.083 178.748C493.428 179.192 493.785 179.309 494.42 179.241C498.813 178.242 499.732 178.419 502.958 180.241C504.091 180.797 505.217 181.349 506.177 182.06C509.286 184.24 512.549 184.641 516.064 183.226C516.744 182.929 517.652 182.677 517.804 183.613C518.272 186.851 520.918 188.943 521.481 192.154C521.869 194.327 521.393 196.525 521.91 198.776C522.762 202.231 525.42 204.752 525.967 208.297C526.188 209.869 529.678 210.309 531.069 209.052C531.343 208.868 531.537 208.382 531.48 208.176C531.02 206.131 530.053 204.227 530.991 202.117C528.654 201.139 529.641 198.038 528.034 196.965C526.432 195.886 527.301 195.104 527.498 193.849C527.692 192.601 526.235 191.27 527.265 189.898C526.253 188.979 525.711 187.827 525.452 186.488C525.356 185.752 525.187 185.145 526.196 184.865C527.204 184.584 527.401 185.292 527.598 186C527.681 186.301 527.794 186.707 527.878 187.008C528.537 190.955 530.069 194.113 533.737 196.359C535.154 197.16 535.398 196.87 536.139 196.016C536.951 195.028 536.57 194.047 536.29 193.038C534.888 187.995 533.514 183.052 532.111 178.004C531.663 176.393 531.885 176.002 533.428 174.924C537.075 172.387 540.159 169.032 543.46 166.049C546.242 163.535 548.635 160.805 550.816 157.702C551.277 157.028 551.701 156.586 552.436 156.489C555.096 156.296 556.346 154.532 557.352 152.296C558.052 150.907 558.569 149.244 560.818 150.684C561.492 151.145 562.333 150.263 561.997 149.054C561.745 148.145 560.688 146.698 561.842 146.161C563.029 145.723 563.182 143.94 564.736 144.049C565.396 144.087 566.146 143.657 566.754 143.488C569.202 142.921 571.425 142.303 572.49 139.504C572.392 137.575 573.855 136.19 575.622 135.915ZM665.671 147.079C665.331 146.633 665.504 146.477 666.039 146.437C666.468 146.426 666.975 146.285 667.432 146.374C667.761 146.39 667.774 146.825 667.4 147.037C666.849 147.406 666.247 147.574 664.649 145.736C664.906 145.881 665.235 145.898 665.391 146.071C665.705 146.421 665.56 146.678 665.102 146.589C664.874 146.544 664.683 146.267 664.427 146.122C664.455 146.223 664.6 145.966 665.671 147.079ZM690.262 118.622C690.067 119.109 690.023 119.337 689.905 119.694C689.593 119.348 689.276 119.004 689.035 118.525C688.979 118.325 689.201 117.938 689.317 117.576C689.659 118.028 689.971 118.373 690.262 118.622ZM670.64 140.703C671.142 140.564 671.576 140.551 671.643 141.181C671.699 141.382 671.222 141.628 670.921 141.712C670.442 141.953 669.983 141.859 669.916 141.229C669.888 141.129 670.362 140.889 670.64 140.703ZM478.667 149.168C479.066 147.863 480.695 147.848 481.093 146.537C481.21 146.18 482.447 145.945 483.11 145.977C483.998 146.06 483.922 146.951 484.117 147.654C484.454 148.868 484.839 149.086 485.567 147.797C486.151 146.764 487.055 147.275 487.857 147.809C488.143 148.059 489.319 148.381 488.539 148.706C486.752 149.316 486.911 151.445 485.451 152.067C484.097 152.66 484.307 151.082 483.665 150.715C482.56 150.26 482.797 151.502 482.474 151.916C481.911 152.613 481.586 153.795 480.553 153.212C479.649 152.701 479.012 151.575 478.172 150.501C478.289 150.144 478.479 149.659 478.667 149.168ZM465.862 136.315C466.635 134.798 467.949 133.67 469.509 133.021C470.69 132.584 471.494 133.123 471.557 134.516C471.544 136.044 469.536 138.992 468.014 138.982C467.021 138.929 465.945 138.579 465.608 137.365C465.725 137.008 465.741 136.679 465.862 136.315ZM462.931 143.763C463.284 144.643 463.113 145.993 464.83 145.516C465.337 145.376 465.749 145.693 465.918 146.3C466.087 146.908 465.825 147.521 465.39 147.534C463.507 147.408 463.187 149.779 461.463 149.82C460.6 149.844 459.68 149.667 460.046 149.019C460.936 147.145 459.085 144.394 461.642 143.034C461.839 143.742 462.224 143.959 462.931 143.763ZM437.547 176.792C437.25 176.113 437.138 175.711 436.145 175.658C433.631 175.599 433.603 175.499 434.557 173.056C435.008 171.957 435.415 171.844 436.426 172.758C436.687 172.901 437.072 173.119 437.373 173.035C439.362 172.374 439.248 174.687 440.381 175.242C441.152 175.682 440.496 176.843 439.432 176.923C438.78 177.32 438.005 177.643 437.547 176.792ZM912.227 69.1007C911.848 69.3141 910.466 69.8063 910.945 68.8082C911.356 67.9319 910.923 65.987 911.57 66.348C913.345 67.2708 914.653 65.7128 916.085 66.1795C916.677 66.3448 917.146 66.8633 917.788 67.2306C917.225 67.9277 917.277 68.8918 916.192 69.3068C914.859 68.8071 913.553 68.4077 912.227 69.1007ZM893.013 98.1341C892.994 97.269 891.666 96.011 893.377 95.5354C894.592 95.1979 895.647 95.883 896.144 97.2638C896.341 97.9714 896.638 98.651 896.705 99.2811C896.852 100.219 896.021 100.341 895.414 100.51C894.706 100.707 894.032 101.002 893.674 100.123C893.434 99.6496 893.394 99.1148 893.254 98.613C893.125 98.5355 893.069 98.3348 893.013 98.1341ZM479.225 146.078C479.248 146.942 477.5 148.082 476.624 147.671C475.877 147.338 475.826 146.374 475.027 145.834C473.682 144.905 474.015 144.158 475.631 143.709C478.328 142.851 478.998 143.319 479.225 146.078ZM491.303 150.441C492.198 149.754 493.706 150.859 494.328 152.319C494.679 153.195 494.675 153.958 493.561 154.267C492.123 154.559 490.46 154.043 490.047 152.963C489.872 151.925 490.478 150.994 491.303 150.441ZM707.766 108.103C708.743 108.485 709.69 108.763 710.667 109.145C709.408 109.711 711.267 111.692 709.322 112.125C707.879 112.418 706.116 111.929 705.752 110.619C705.589 109.254 707.829 109.496 707.766 108.103ZM446.184 150.374C445.32 150.398 445.356 148.972 445.265 148.235C445.17 147.504 446.151 147.124 446.764 147.386C447.997 147.913 449.041 148.926 450.479 148.634C450.585 148.605 451.038 149.458 451.151 149.864C451.206 150.065 450.727 150.306 450.482 150.59C449.104 150.319 447.678 150.283 446.184 150.374ZM839.365 91.6321C840.33 91.5854 841.292 90.3396 842.113 91.7385C842.723 92.7638 841.593 94.1644 840.135 94.7913C839.154 95.172 838.467 95.0333 838.259 93.8964C837.794 92.6145 837.871 91.7229 839.365 91.6321ZM461.642 143.034C461.546 142.299 460.731 141.331 461.784 140.822C462.536 140.397 463.372 140.272 464.208 140.148C465.445 139.913 465.698 140.821 465.393 141.668C465.066 142.845 464.353 143.8 462.859 143.891C462.735 143.055 462.345 142.839 461.642 143.034ZM470.9 141.548C472.026 140.911 473.146 141.032 474.234 141.816C475.323 142.6 473.305 143.161 474.06 143.93C472.891 144.8 471.79 143.582 470.653 143.79C470.657 143.026 469.875 142.157 470.9 141.548ZM468.383 143.442C469.42 143.262 470.296 143.673 470.922 144.369C471.765 145.438 470.686 147.04 470.156 147.079C468.992 147.187 467.931 146.503 467.796 145.238C467.543 144.33 467.347 143.622 468.383 143.442ZM704.555 128.991C704.121 129.004 703.563 128.942 703.101 128.855C703.261 128.264 703.667 128.151 704.141 127.911C705.022 127.559 704.596 126.806 704.529 126.176C704.545 125.842 705.197 125.445 705.598 125.333C706.105 125.193 706.418 125.543 706.686 126.118C707.397 127.877 707.174 128.263 704.928 128.779C704.884 129.008 704.683 129.064 704.555 128.991ZM916.315 56.4448C915.895 54.9343 914.586 55.2984 913.609 54.9157C912.991 54.6551 912.939 53.691 913.461 53.2162C914.258 52.5623 915.089 53.2015 915.759 53.6642C916.791 54.2476 916.77 55.3399 916.817 56.3053C916.845 56.4057 916.672 56.5618 916.6 56.6901C916.027 56.9628 916.428 56.8513 916.315 56.4448ZM890.871 90.037C891.482 89.1049 893.906 88.4313 894.938 89.0147C895.195 89.1596 894.985 89.9802 894.996 90.4095C893.41 89.0015 893.12 91.477 891.926 91.4791C891.368 91.4178 890.978 91.2018 890.938 90.6671C890.854 90.366 890.798 90.1653 890.871 90.037ZM452.679 151.066C453.688 150.786 454.776 151.57 454.889 151.977C455.041 152.913 454.529 153.812 453.448 154.221C452.54 154.473 452.344 153.77 452.148 153.063C452.051 152.327 451.37 151.43 452.679 151.066ZM472.211 149.006C472.948 148.915 473.787 148.027 474.453 149.253C474.694 149.732 473.917 152.013 473.588 151.996C472.795 151.887 471.948 151.582 471.848 151.61C471.343 149.793 471.375 149.13 472.211 149.006ZM598.987 131.6C599.262 133.367 597.729 132.928 596.949 133.253C596.47 133.494 595.955 133.199 595.888 132.569C595.708 131.532 596.375 130.801 597.144 130.047C597.568 130.794 598.807 130.563 598.987 131.6ZM643.421 147.176C644.716 147.146 645.72 147.629 646.084 148.939C646.224 149.441 645.93 149.96 645.3 150.027C644.006 150.057 643.002 149.579 642.537 148.293C642.698 147.707 642.758 147.144 643.421 147.176ZM867.672 85.9433C866.965 86.14 866.362 86.3073 866.081 85.2937C865.83 84.3904 866.403 84.1177 867.082 83.8206C867.963 83.4678 868.726 83.4719 869.553 84.1125C869.843 84.3614 870.1 84.5063 870.457 84.6234C870.212 84.9078 870.067 85.1643 869.79 85.3548C869.517 85.5388 869.087 85.55 868.781 85.6351C868.279 85.7746 867.978 85.8582 867.672 85.9433ZM579.063 136.159C579.316 137.067 578.608 137.263 577.901 137.46C577.093 137.685 576.24 138.138 575.875 136.823C575.652 136.02 575.644 135.584 576.402 135.59C577.468 135.515 578.586 134.442 579.063 136.159ZM874.276 81.9294C875.008 81.8396 875.981 81.0231 876.373 82.4332C876.655 83.4469 876.075 83.716 875.34 83.8123C874.632 84.0089 873.607 84.6182 872.946 82.6288C872.961 82.2948 873.541 82.0257 874.276 81.9294ZM440.27 154.515C441.334 154.436 442.411 154.791 442.563 155.727C442.659 156.462 441.51 156.236 440.83 156.533C439.85 156.913 439.654 156.211 439.485 155.604C439.445 155.069 439.635 154.584 440.27 154.515ZM661.638 152.114C662.273 152.046 663.27 151.336 663.438 151.938C663.69 152.847 663.079 153.779 661.998 154.187C661.418 154.456 661.006 154.139 660.737 153.559C660.67 152.929 660.702 152.266 661.638 152.114ZM888.406 87.0244C889.097 87.1568 888.96 87.849 889.172 88.2226C889.525 89.103 889.649 89.9388 888.411 90.1745C887.882 90.2136 887.42 90.1259 887.323 89.3904C887.154 88.7832 887.944 86.9367 888.406 87.0244ZM881.6 83.2672C881.989 83.4832 882.331 83.9343 882.47 84.4361C882.667 85.1436 883.349 86.0407 881.967 86.533C881.359 86.7017 880.975 86.4843 880.661 86.1336C880.594 85.5036 881.442 83.0894 881.6 83.2672ZM458.427 147.512C458.468 148.047 458.25 148.432 457.643 148.6C456.735 148.853 456.365 148.301 456.27 147.571C456.23 147.036 456.424 146.55 457.054 146.483C457.963 146.23 458.232 146.81 458.427 147.512ZM700.746 114.508C700.545 114.564 700.2 114.119 700.172 114.019C700.237 113.455 703.464 112.558 703.906 112.981C704.034 113.054 703.872 113.639 703.8 113.768C703.528 113.957 703.092 113.964 702.791 114.048C702.156 114.116 701.449 114.313 700.746 114.508ZM706.216 104.079C707.124 103.827 707.492 104.373 707.588 105.109C707.629 105.643 707.406 106.03 706.804 106.197C705.796 106.477 705.627 105.87 705.432 105.168C705.391 104.633 705.48 104.176 706.216 104.079ZM675.925 151.511C676.254 151.528 676.794 150.729 677.075 151.738C677.327 152.646 677.524 153.353 676.314 153.69C675.707 153.858 675.321 153.636 675.069 152.728C674.929 152.226 675.089 151.635 675.925 151.511ZM446.484 170.611C446.797 170.962 447.11 171.307 447.351 171.786C447.407 171.987 447.189 172.372 447.074 172.734C446.76 172.383 446.443 172.039 446.129 171.688C446.246 171.331 446.368 170.973 446.484 170.611ZM651.652 154.89C651.752 154.862 652.194 155.285 652.222 155.385C652.088 156.071 651.425 156.039 650.996 156.05C650.79 156.107 650.578 155.734 650.421 155.556C650.587 154.969 651.245 155.003 651.652 154.89ZM468.34 127.259C468.269 127.392 468.124 127.648 468.124 127.648C467.895 127.604 467.566 127.587 467.331 127.539C467.404 127.411 467.481 127.281 467.626 127.025C467.855 127.069 468.083 127.114 468.34 127.259ZM677.213 144.418C677.542 144.434 678.077 144.394 678.105 144.494C678.374 145.073 678 145.285 677.494 145.426C677.41 145.125 677.325 144.819 677.213 144.418ZM432.303 154.016C432.48 153.853 432.625 153.597 432.926 153.513C433.026 153.485 433.182 153.658 433.317 153.734C433.139 153.892 432.966 154.048 432.721 154.332C432.665 154.131 432.437 154.087 432.303 154.016Z" fill="#FFAE00"/>
<path d="M151.622 215.915C151.585 213.428 152.824 211.234 155.115 210.49C157.711 209.66 160.263 209.059 162.883 208.331C163.39 208.19 163.892 208.051 163.988 208.786C164.044 208.987 163.57 209.227 163.264 209.312C162.255 209.592 162.279 210.456 162.62 210.907C163.279 211.702 164.132 212.438 165.347 212.1C166.356 211.82 166.032 211.045 165.735 210.365C165.108 208.907 165.888 208.582 167.097 208.246C169.115 207.685 171.111 208.217 173.024 208.448C175.829 208.755 178.712 209.364 181.206 210.52C184.218 211.964 187.71 212.41 190.183 214.658C191.796 216.161 193.83 215.271 195.598 215.759C200.306 217.061 204.663 219.434 209.548 219.817C211.66 219.987 213.03 221.785 215.243 221.926C217.256 222.129 218.954 223.939 221.49 223.671C223.391 223.468 225.451 224.636 227.483 223.741C227.789 223.656 228.248 223.75 228.404 223.923C229.388 225.498 231.537 224.247 232.705 226.095C233.528 227.499 235.82 224.797 237.562 226.378C237.852 226.622 239.435 226.074 239.301 226.76C238.415 229.833 241.324 229.349 242.512 230.105C245.353 231.711 245.626 231.526 247.042 228.414C247.38 227.666 247.201 226.629 247.691 226.06C248.014 225.646 248.95 225.494 249.708 225.5C250.243 225.459 250.696 226.312 250.579 226.669C249.268 228.99 250.428 229.646 252.514 229.72C252.715 229.665 252.794 230.729 252.934 231.231C255.636 229.615 253.854 227.499 253.622 225.499C253.321 225.582 252.914 225.695 252.613 225.779C252.284 225.762 251.749 225.803 251.722 225.702C251.452 225.123 251.831 224.91 252.333 224.77C252.634 224.687 253.04 224.574 253.342 224.49C253.273 223.855 252.548 223.191 253.215 222.46C253.706 221.891 254.469 221.895 255.038 222.386C255.457 222.707 255.942 222.897 256.457 223.192C259.625 224.809 262.41 223.489 263.285 219.986C260.692 218.863 263.451 218.637 263.488 217.973C263.637 216.953 263.128 215.9 262.976 214.963C262.796 213.927 263.531 213.831 264.268 213.739C266.915 213.112 268.892 212.016 268.866 209.958C268.84 207.901 269.569 206.612 270.698 205.211C271.438 204.352 271.33 203.187 269.631 203.335C269.302 203.318 268.945 203.201 268.616 203.184C268.76 202.923 268.849 202.466 269.049 202.41C269.729 202.113 270.465 202.016 271.067 201.849C273.262 201.131 273.262 201.131 271.752 198.831C271.513 198.357 271.472 197.823 271.333 197.321C271.192 196.814 271.052 196.312 270.428 196.81C270.256 196.966 270.296 197.501 270.38 197.802C270.56 198.838 269.88 199.135 269.217 199.103C268.353 199.127 268.307 198.162 268.138 197.555C267.941 196.847 267.902 196.317 268.755 195.864C270.353 194.982 269.736 192.764 271.429 191.423C272.876 190.367 274.011 188.965 275.844 188.131C276.998 187.595 277.814 185.843 277.767 184.121C277.764 182.922 278.392 181.661 279.987 181.547C281.587 181.427 284.779 183.151 283.071 178.949C283.043 178.849 283.433 178.308 283.74 178.223C286.966 177.326 290.298 176.4 293.525 175.503C293.826 175.42 294.216 175.636 294.5 175.881C294.885 176.098 295.561 176.565 295.488 176.693C295.222 177.313 294.667 178.446 294.438 178.401C291.598 177.558 291.27 180.693 289.514 181.397C288.734 181.722 288.334 183.027 288.772 184.214C289.209 185.395 289.771 185.455 290.78 185.175C290.981 185.119 291.306 185.899 291.646 186.345C292.434 187.218 293.242 186.993 293.648 186.119C293.914 185.499 295.24 184.806 293.65 184.161C293.288 184.045 293.091 183.338 292.85 182.859C292.61 182.385 291.273 182.649 291.956 181.588C292.202 181.304 292.809 181.135 293.422 181.397C293.684 181.541 294.265 182.466 294.644 181.495C295.499 179.085 296.824 178.387 298.957 180.189C300.226 179.29 301.905 180.234 303.204 179.441C305.659 178.104 308.367 179.638 310.878 178.503C311.859 178.122 311.911 179.086 312.18 179.665C313.27 181.643 313.504 181.687 314.694 179.723C315.595 178.278 316.157 178.338 317.942 178.496C324.337 179.216 330.217 181.604 336.302 183.173C339.805 184.048 343.542 184.966 347.072 185.942C350.503 186.945 354.061 188.021 357.802 188.176C361.437 188.361 365.041 189.208 368.698 189.062C370.495 190.843 372.571 188.526 374.675 189.466C376.17 190.137 378.436 188.528 380.129 187.188C381.275 186.215 383.155 186.347 384.743 185.797C388.019 184.67 391.57 184.554 394.476 182.114C396.04 180.7 397.229 181.457 399.602 183.732C399.914 184.078 400.573 184.873 401.293 184.349C401.816 183.879 402.049 183.16 402.186 182.468C402.203 182.139 401.733 181.616 401.315 181.299C400.332 180.486 399.858 179.964 401.334 179.013C406.981 175.487 411.778 170.456 418.465 168.705C418.972 168.565 419.837 168.546 419.981 168.284C421.298 165.205 424.396 164.235 426.712 162.397C430.025 159.844 433.345 157.726 437.613 156.648C437.713 156.62 437.512 156.676 437.412 156.704C437.429 156.375 437.344 156.069 437.489 155.812C437.606 155.456 437.935 155.472 438.152 155.844C438.18 155.945 437.958 156.336 437.613 156.648C437.169 158.183 438.881 158.469 439.318 159.65C439.587 160.23 439.516 161.552 440.224 161.355C441.305 160.947 440.266 159.933 440.27 159.169C440.287 158.84 440.347 158.278 440.548 158.222C441.629 157.813 442.565 157.661 440.835 156.515C438.458 155.002 438.559 154.975 440.745 153.059C441.888 152.092 443.491 151.209 444.423 151.82C446.382 153.016 448.009 152.997 449.971 152.235C451.631 151.557 453.799 153.89 455.025 151.263C455.437 150.392 455.918 151.344 455.974 151.545C455.916 153.302 458.114 153.778 458.26 155.472C458.325 156.871 459.449 156.228 460.286 156.109C462.131 155.705 461.186 154.659 460.593 153.305C460.409 153.032 460.738 153.048 460.894 153.221C461.207 153.567 461.063 153.828 460.604 153.734C460.376 153.69 460.187 153.418 459.93 153.273C459.93 153.273 460.074 153.011 460.565 153.204C464.385 153.662 467.899 154.967 468.622 157.16C469.255 159.049 469.909 159.846 471.878 160.277C473.611 160.66 473.671 162.822 472.123 163.901C471.777 164.214 471.041 164.31 470.701 163.864C470.254 163.442 470.481 162.293 469.6 162.646C468.993 162.814 469.424 163.565 469.564 164.072C470.22 166.82 470.706 167.014 473.118 165.906C473.391 165.722 473.921 165.683 473.97 165.453C474.565 164.093 475.924 163.499 476.957 164.082C477.989 164.666 477.975 166.189 478.11 167.454C478.123 167.888 477.499 168.386 477.638 168.888C477.735 169.623 478.004 170.203 479.012 169.922C479.921 169.67 480.745 169.116 481.564 169.321C482.384 169.526 483.272 169.609 483.99 169.841C485.296 170.241 483.262 171.13 483.916 171.927C484.391 172.449 483.979 173.321 484.855 173.731C485.598 174.071 486.385 174.938 487.309 174.352C488.061 173.927 487.736 173.147 487.541 172.444C487.4 171.937 487.248 171.001 487.677 170.99C488.312 170.922 489.217 171.432 489.458 171.911C490.262 173.639 491.359 175.621 490.77 177.412C490.255 179.079 490.724 179.598 491.884 180.254C492.271 180.476 491.871 181.782 492.928 181.266C493.129 181.211 492.878 180.307 492.837 179.773C492.798 179.243 492.401 178.591 492.875 178.351C493.354 178.11 493.621 178.684 493.762 179.191C494.238 180.902 494.715 182.619 495.192 184.335C495.361 184.942 495.745 185.159 496.453 184.963C497.06 184.794 497.551 184.225 497.237 183.875C495.969 182.054 497.393 180.139 496.889 178.322C496.664 177.514 496.852 177.024 497.76 176.772C498.947 176.334 498.401 175.945 497.63 175.505C496.497 174.95 496.107 174.734 496.494 172.994C497.181 169.981 498.369 166.824 497.266 163.654C496.801 162.367 496.782 161.502 498.309 160.754C498.989 160.457 498.073 159.516 498.21 158.824C498.337 156.945 495.502 159.252 496.062 157.356C496.55 155.593 494.565 155.491 494.465 155.519C492.154 156.599 490.789 154.8 489.066 154.084C486.601 153.034 485.264 150.578 482.697 149.551C481.464 149.023 481.652 147.344 481.343 146.235C481.022 144.692 480.159 144.716 479.078 145.124C478.599 145.365 477.84 145.36 477.727 144.953C477.588 144.452 478.552 144.4 478.797 144.115C479.509 143.155 479.049 141.11 478.185 141.134C477.321 141.158 475.871 141.015 475.729 142.471C475.651 143.357 476.166 143.652 474.615 143.537C472.201 143.451 470.56 141.842 468.434 141.233C464.413 140.07 459.969 140.11 456.391 137.407C455.275 136.522 453.651 138.498 452.466 136.979C449.858 138.136 446.846 136.692 444.318 138.157C442.339 139.247 440.231 138.314 438.303 138.417C436.808 138.503 435.636 137.418 435.936 140.054C435.975 140.583 434.716 141.15 434.227 141.723C433.904 142.137 433.759 142.394 433.519 141.92C432.966 141.095 432.573 139.68 431.354 140.781C430.386 141.596 431.458 142.709 431.638 143.746C431.757 144.583 431.695 145.141 430.759 145.293C428.157 145.692 425.985 147.274 423.678 148.347C422.62 148.858 421.761 148.88 422.21 150.496C422.463 151.404 420.719 151.781 420.127 151.616C416.798 150.589 414.008 152.668 410.969 153.074C410.339 153.141 410.018 153.56 410.057 154.09C410.153 154.825 410.35 155.533 411.459 155.225C412.438 154.839 412.836 155.491 412.831 156.254C412.984 157.19 412.148 157.314 411.44 157.511C408.515 158.324 406.56 160.278 404.344 162.089C402.133 163.898 399.618 165.797 396.932 167.084C396.453 167.325 395.667 167.22 395.417 167.505C393.103 171.3 388.749 170.883 385.512 172.539C381.73 174.569 377.768 175.562 373.761 176.784C372.346 177.177 371.154 177.184 369.748 176.813C366.016 175.893 361.93 176.05 358.665 173.698C354.987 174.936 352.813 171.41 349.523 170.914C346.362 170.49 343.47 168.682 340.37 167.701C338.479 167.14 336.369 166.201 334.625 166.578C332.073 167.179 330.404 165.47 328.307 164.966C325.523 164.324 323.452 161.969 320.129 162.131C317.336 162.253 314.702 160.596 311.704 161.537C310.695 161.817 309.362 161.318 308.357 160.835C307.068 160.106 305.831 160.342 304.382 160.204C301.605 159.997 298.838 159.026 296.15 158.362C295.33 158.152 294.776 157.327 293.695 157.736C291.562 158.659 289.399 158.714 287.168 157.707C286.264 157.196 285.467 157.85 284.659 158.074C282.007 158.703 279.515 159.504 276.891 160.233C271.948 161.607 266.336 165.67 263.098 170.045C262.386 171.005 261.602 172.094 260.622 172.474C259.468 173.011 258.957 173.915 258.68 174.863C256.367 181.809 251.926 187.713 248.586 194.075C247.374 196.368 246.007 198.489 245.901 201.238C245.912 201.667 245.522 202.208 245.529 202.644C245.287 204.884 240.077 202.964 241.962 207.003C240.823 209.168 238.806 209.729 236.644 210.546C232.115 212.242 230.977 212.445 226.872 210.98C226.387 210.791 225.889 210.167 225.483 210.28C220.033 211.795 215.6 208.351 210.893 207.053C205.366 205.546 200.338 202.705 194.501 202.046C191.93 201.782 189.713 199.679 186.796 199.728C184.077 199.727 181.86 197.624 179.105 197.087C177.599 196.743 176.366 196.216 174.594 196.492C171.15 197.016 167.751 195.35 164.183 195.796C163.882 195.879 163.481 195.234 163.28 195.29C159.012 197.125 154.099 195.885 149.988 197.898C146.349 199.666 142.896 201.712 139.415 203.658C139.315 203.686 139.3 204.02 139.099 204.076C137.708 205.333 134.653 202.16 134.429 205.265C134.266 207.808 131.936 208.023 131.448 209.786C131.31 210.478 130.847 211.147 129.984 211.171C126.56 211.36 125.184 214.246 123.414 216.473C121.544 218.733 119.228 220.572 116.661 221.507C113.691 222.549 111.892 224.676 109.806 226.564C107.723 228.445 105.92 230.573 103.453 232.238C102.251 233.01 101.281 233.82 99.9718 234.184C99.1639 234.408 98.1998 234.46 97.8171 235.436C96.7021 238.465 93.6852 238.542 91.5996 238.467C89.716 238.342 88.1712 238.658 86.5604 239.106C84.9446 239.555 84.2983 239.194 84.0828 237.621C83.7913 236.183 82.7443 237.123 82.0584 236.989C80.8099 236.795 79.0472 239.458 78.2062 236.433C78.0933 236.026 77.5635 236.065 77.4136 236.323C77.2979 236.685 77.3816 236.986 77.3649 237.315C77.2438 238.435 79.3149 240.033 76.7958 240.733C75.5814 241.07 74.5666 240.92 73.341 240.828C71.9908 240.657 71.6785 240.312 71.2685 239.226C70.7483 237.743 69.5876 237.087 67.8993 237.665C65.3306 238.595 63.0289 238.91 62.2478 235.321C62.1362 234.92 60.9476 234.164 60.0114 234.316C58.6738 234.58 59.2831 235.605 59.1773 236.391C59.0449 237.082 58.382 237.05 57.8751 237.191C56.9669 237.443 56.9212 233.758 55.2485 236.726C54.6652 237.759 53.0067 236.479 51.8572 236.252C50.1744 236.071 48.0441 236.226 47.1712 233.863C46.8742 233.183 45.5852 232.455 44.3541 233.121C43.6795 233.417 43.0723 233.586 42.5912 232.633C41.9428 231.078 41.1907 231.503 40.3787 232.491C39.6656 233.446 39.0265 234.278 37.9287 235.015C36.3088 236.227 34.6599 233.426 33.5656 235.363C32.6923 236.908 31.1135 236.693 29.9041 237.029C27.3075 237.859 27.2796 237.758 25.5583 235.085C25.2181 234.639 24.8993 234.29 24.4867 233.972C23.5267 233.261 22.9245 233.428 22.6701 234.477C22.3204 235.553 21.7928 236.786 21.8724 237.85C21.9749 239.017 21.3448 239.084 20.6485 239.71C19.5075 240.681 19.8045 241.36 21.0551 242.748C23.0993 245.007 26.004 245.286 28.1602 247.19C29.0199 247.93 31.1487 247.77 32.5588 247.378C34.7094 246.889 36.4682 248.141 38.5246 248.11C39.3883 248.086 40.6215 248.614 40.8586 249.856C41.291 251.801 42.612 251.866 44.3916 252.025C48.2159 252.482 51.9069 252.867 55.6713 253.885C58.0261 254.539 60.7064 254.01 62.9782 255.552C66.2266 254.325 67.5618 256.776 69.0829 258.748C69.4281 259.192 69.785 259.309 70.4201 259.241C74.8129 258.242 75.7324 258.419 78.958 260.241C80.0909 260.797 81.2173 261.349 82.1773 262.06C85.2859 264.24 88.5489 264.641 92.0641 263.226C92.7437 262.929 93.652 262.677 93.8041 263.613C94.2715 266.851 96.9179 268.943 97.4806 272.154C97.8685 274.327 97.3926 276.525 97.91 278.776C98.7622 282.231 101.42 284.752 101.967 288.297C102.188 289.869 105.678 290.309 107.069 289.052C107.343 288.868 107.537 288.382 107.48 288.176C107.02 286.131 106.052 284.227 106.991 282.117C104.654 281.139 105.641 278.038 104.034 276.965C102.432 275.886 103.301 275.104 103.498 273.849C103.692 272.601 102.235 271.27 103.265 269.898C102.253 268.979 101.711 267.827 101.452 266.488C101.356 265.752 101.187 265.145 102.196 264.865C103.204 264.584 103.401 265.292 103.598 266C103.681 266.301 103.794 266.707 103.878 267.008C104.537 270.955 106.069 274.113 109.737 276.359C111.154 277.16 111.398 276.87 112.139 276.016C112.951 275.028 112.57 274.047 112.29 273.038C110.888 267.995 109.514 263.052 108.111 258.004C107.663 256.393 107.884 256.002 109.428 254.924C113.075 252.387 116.159 249.032 119.46 246.049C122.242 243.535 124.635 240.805 126.816 237.702C127.277 237.028 127.701 236.586 128.436 236.489C131.096 236.296 132.346 234.532 133.352 232.296C134.052 230.907 134.569 229.244 136.818 230.684C137.492 231.145 138.333 230.263 137.997 229.054C137.745 228.145 136.688 226.698 137.842 226.161C139.028 225.723 139.182 223.94 140.736 224.049C141.396 224.087 142.146 223.657 142.753 223.488C145.201 222.921 147.424 222.303 148.49 219.504C148.392 217.575 149.855 216.19 151.622 215.915ZM241.671 227.079C241.331 226.633 241.504 226.477 242.039 226.437C242.468 226.426 242.975 226.285 243.432 226.374C243.761 226.39 243.774 226.825 243.4 227.037C242.849 227.406 242.246 227.574 240.649 225.736C240.906 225.881 241.235 225.898 241.391 226.071C241.705 226.421 241.56 226.678 241.102 226.589C240.874 226.544 240.683 226.267 240.427 226.122C240.455 226.223 240.6 225.966 241.671 227.079ZM266.262 198.622C266.067 199.109 266.022 199.337 265.905 199.694C265.593 199.348 265.276 199.004 265.035 198.525C264.979 198.325 265.201 197.938 265.317 197.576C265.658 198.028 265.971 198.373 266.262 198.622ZM246.64 220.703C247.142 220.564 247.576 220.551 247.643 221.181C247.699 221.382 247.222 221.628 246.92 221.712C246.442 221.953 245.983 221.859 245.916 221.229C245.888 221.129 246.362 220.889 246.64 220.703ZM54.6671 229.168C55.0664 227.863 56.6948 227.848 57.0928 226.537C57.2098 226.18 58.4471 225.945 59.1101 225.977C59.9981 226.06 59.9215 226.951 60.1168 227.654C60.4543 228.868 60.839 229.086 61.5674 227.797C62.1507 226.764 63.0549 227.275 63.8574 227.809C64.1432 228.059 65.3192 228.381 64.5391 228.706C62.7519 229.316 62.9111 231.445 61.4514 232.067C60.0971 232.66 60.3074 231.082 59.6647 230.715C58.5597 230.26 58.7969 231.502 58.4741 231.916C57.911 232.613 57.5856 233.795 56.5531 233.212C55.6489 232.701 55.0117 231.575 54.1724 230.501C54.2894 230.144 54.4789 229.659 54.6671 229.168ZM41.8619 216.315C42.6348 214.798 43.9486 213.67 45.5086 213.021C46.6901 212.584 47.494 213.123 47.5569 214.516C47.5437 216.044 45.5357 218.992 44.014 218.982C43.0206 218.929 41.945 218.579 41.6075 217.365C41.7245 217.008 41.7412 216.679 41.8619 216.315ZM38.9314 223.763C39.2842 224.643 39.1134 225.993 40.8296 225.516C41.3365 225.376 41.7492 225.693 41.9179 226.3C42.0867 226.908 41.8247 227.521 41.3903 227.534C39.5067 227.408 39.187 229.779 37.4632 229.82C36.5995 229.844 35.68 229.667 36.046 229.019C36.9359 227.145 35.0849 224.394 37.6424 223.034C37.839 223.742 38.2238 223.959 38.9314 223.763ZM13.5468 256.792C13.2498 256.113 13.1382 255.711 12.1449 255.658C9.63125 255.599 9.60335 255.499 10.5568 253.056C11.0083 251.957 11.4147 251.844 12.4255 252.758C12.687 252.901 13.0718 253.119 13.3729 253.035C15.3623 252.374 15.2483 254.687 16.3811 255.242C17.152 255.682 16.4962 256.843 15.4318 256.923C14.78 257.32 14.005 257.643 13.5468 256.792ZM488.227 149.101C487.848 149.314 486.466 149.806 486.945 148.808C487.356 147.932 486.923 145.987 487.57 146.348C489.345 147.271 490.653 145.713 492.085 146.18C492.677 146.345 493.146 146.863 493.788 147.231C493.225 147.928 493.277 148.892 492.192 149.307C490.859 148.807 489.553 148.408 488.227 149.101ZM469.013 178.134C468.994 177.269 467.666 176.011 469.377 175.535C470.592 175.198 471.647 175.883 472.144 177.264C472.341 177.971 472.638 178.651 472.705 179.281C472.852 180.219 472.021 180.341 471.414 180.51C470.706 180.707 470.032 181.002 469.674 180.123C469.434 179.65 469.394 179.115 469.254 178.613C469.124 178.536 469.069 178.335 469.013 178.134ZM55.2245 226.078C55.2483 226.942 53.5001 228.082 52.6238 227.671C51.8772 227.338 51.8255 226.374 51.0266 225.834C49.6819 224.905 50.015 224.158 51.6308 223.709C54.3277 222.851 54.9983 223.319 55.2245 226.078ZM67.3025 230.441C68.1982 229.754 69.7055 230.859 70.3274 232.319C70.6788 233.195 70.6748 233.958 69.5608 234.267C68.1227 234.559 66.4602 234.043 66.0466 232.963C65.8717 231.925 66.4779 230.994 67.3025 230.441ZM283.766 188.103C284.743 188.485 285.69 188.763 286.667 189.145C285.408 189.711 287.267 191.692 285.322 192.125C283.879 192.418 282.116 191.929 281.752 190.619C281.589 189.254 283.829 189.496 283.766 188.103ZM22.1839 230.374C21.3202 230.398 21.3562 228.972 21.265 228.235C21.1701 227.504 22.1508 227.124 22.7642 227.386C23.9974 227.913 25.0411 228.926 26.4791 228.634C26.5845 228.605 27.0376 229.458 27.1506 229.864C27.2064 230.065 26.7274 230.306 26.4821 230.59C25.104 230.319 23.6777 230.283 22.1839 230.374ZM415.365 171.632C416.33 171.585 417.292 170.34 418.113 171.739C418.723 172.764 417.593 174.164 416.135 174.791C415.154 175.172 414.467 175.033 414.259 173.896C413.794 172.615 413.871 171.723 415.365 171.632ZM37.6424 223.034C37.5461 222.299 36.731 221.331 37.7843 220.822C38.5364 220.397 39.3722 220.272 40.208 220.148C41.4453 219.913 41.6977 220.821 41.3926 221.668C41.0657 222.845 40.3527 223.8 38.8589 223.891C38.7347 223.055 38.3449 222.839 37.6424 223.034ZM46.9002 221.548C48.0259 220.911 49.1461 221.032 50.2343 221.816C51.3226 222.6 49.3053 223.161 50.0595 223.93C48.8906 224.8 47.7898 223.582 46.6529 223.79C46.657 223.026 45.8748 222.157 46.9002 221.548ZM44.3832 223.442C45.4197 223.262 46.296 223.673 46.922 224.369C47.7649 225.438 46.686 227.04 46.1563 227.079C44.9915 227.187 43.9311 226.503 43.7957 225.238C43.5433 224.33 43.3466 223.622 44.3832 223.442ZM280.555 208.991C280.121 209.004 279.563 208.942 279.101 208.855C279.261 208.264 279.667 208.151 280.141 207.911C281.022 207.559 280.596 206.806 280.529 206.176C280.545 205.842 281.196 205.445 281.598 205.333C282.105 205.193 282.418 205.543 282.686 206.118C283.397 207.877 283.174 208.263 280.928 208.779C280.884 209.008 280.683 209.064 280.555 208.991ZM492.315 136.445C491.895 134.934 490.586 135.298 489.609 134.916C488.99 134.655 488.939 133.691 489.461 133.216C490.258 132.562 491.089 133.201 491.758 133.664C492.791 134.248 492.77 135.34 492.817 136.305C492.845 136.406 492.672 136.562 492.599 136.69C492.027 136.963 492.428 136.851 492.315 136.445ZM466.871 170.037C467.482 169.105 469.906 168.431 470.938 169.015C471.195 169.16 470.985 169.98 470.996 170.41C469.41 169.002 469.12 171.477 467.926 171.479C467.368 171.418 466.978 171.202 466.938 170.667C466.854 170.366 466.798 170.165 466.871 170.037ZM28.6794 231.066C29.688 230.786 30.7763 231.57 30.8892 231.977C31.0413 232.913 30.529 233.812 29.4479 234.221C28.5396 234.473 28.3444 233.77 28.1477 233.063C28.0514 232.327 27.3697 231.43 28.6794 231.066ZM48.2107 229.006C48.9475 228.915 49.7874 228.027 50.4525 229.253C50.6937 229.732 49.9168 232.013 49.5878 231.996C48.7951 231.887 47.9481 231.582 47.8478 231.61C47.3429 229.793 47.3749 229.13 48.2107 229.006ZM174.987 211.6C175.262 213.367 173.729 212.928 172.949 213.253C172.47 213.494 171.955 213.199 171.888 212.569C171.708 211.532 172.375 210.801 173.144 210.047C173.568 210.794 174.807 210.563 174.987 211.6ZM219.421 227.176C220.716 227.146 221.72 227.629 222.084 228.939C222.224 229.441 221.93 229.96 221.3 230.027C220.006 230.057 219.002 229.579 218.537 228.293C218.698 227.707 218.758 227.144 219.421 227.176ZM443.672 165.943C442.964 166.14 442.362 166.307 442.081 165.294C441.83 164.39 442.402 164.118 443.082 163.821C443.962 163.468 444.726 163.472 445.553 164.112C445.843 164.361 446.1 164.506 446.457 164.623C446.211 164.908 446.067 165.164 445.79 165.355C445.517 165.539 445.087 165.55 444.781 165.635C444.279 165.775 443.978 165.858 443.672 165.943ZM155.063 216.159C155.316 217.067 154.608 217.263 153.901 217.46C153.093 217.685 152.24 218.138 151.875 216.823C151.652 216.02 151.644 215.584 152.402 215.59C153.468 215.515 154.586 214.442 155.063 216.159ZM450.276 161.929C451.008 161.84 451.981 161.023 452.373 162.433C452.655 163.447 452.075 163.716 451.34 163.812C450.632 164.009 449.607 164.618 448.946 162.629C448.961 162.295 449.54 162.026 450.276 161.929ZM16.2695 234.515C17.334 234.436 18.411 234.791 18.5631 235.727C18.6594 236.462 17.5099 236.236 16.8302 236.533C15.8494 236.913 15.6542 236.211 15.4854 235.604C15.4449 235.069 15.6344 234.584 16.2695 234.515ZM237.638 232.114C238.273 232.046 239.27 231.336 239.438 231.938C239.69 232.847 239.079 233.779 237.998 234.187C237.418 234.456 237.006 234.139 236.737 233.559C236.67 232.929 236.702 232.266 237.638 232.114ZM464.406 167.024C465.097 167.157 464.96 167.849 465.172 168.223C465.524 169.103 465.649 169.939 464.411 170.175C463.882 170.214 463.419 170.126 463.323 169.39C463.154 168.783 463.944 166.937 464.406 167.024ZM457.599 163.267C457.989 163.483 458.331 163.934 458.47 164.436C458.667 165.144 459.349 166.041 457.967 166.533C457.359 166.702 456.975 166.484 456.661 166.134C456.594 165.504 457.442 163.089 457.599 163.267ZM34.4271 227.512C34.4676 228.047 34.2502 228.432 33.643 228.6C32.7347 228.853 32.3652 228.301 32.2703 227.571C32.2299 227.036 32.4244 226.55 33.0544 226.483C33.9627 226.23 34.2318 226.81 34.4271 227.512ZM276.746 194.508C276.545 194.564 276.2 194.119 276.172 194.019C276.237 193.455 279.464 192.558 279.906 192.981C280.034 193.054 279.872 193.639 279.8 193.768C279.528 193.957 279.092 193.964 278.791 194.048C278.156 194.116 277.448 194.313 276.746 194.508ZM282.216 184.079C283.124 183.827 283.492 184.373 283.588 185.109C283.629 185.643 283.406 186.03 282.804 186.197C281.796 186.477 281.627 185.87 281.431 185.168C281.391 184.633 281.48 184.176 282.216 184.079ZM251.925 231.511C252.254 231.528 252.794 230.729 253.075 231.738C253.327 232.646 253.524 233.353 252.314 233.69C251.707 233.858 251.321 233.636 251.069 232.728C250.929 232.226 251.089 231.635 251.925 231.511ZM22.4836 250.611C22.7973 250.962 23.1096 251.307 23.3508 251.786C23.4066 251.987 23.1892 252.372 23.0735 252.734C22.7598 252.383 22.4425 252.039 22.1288 251.688C22.2459 251.331 22.3679 250.973 22.4836 250.611ZM227.652 234.89C227.752 234.862 228.194 235.285 228.222 235.385C228.088 236.071 227.425 236.039 226.996 236.05C226.79 236.107 226.578 235.734 226.421 235.556C226.587 234.969 227.245 235.003 227.652 234.89ZM44.3397 207.259C44.2686 207.392 44.1237 207.648 44.1237 207.648C43.8951 207.604 43.5661 207.587 43.331 207.539C43.4035 207.411 43.481 207.281 43.6259 207.025C43.8546 207.069 44.0832 207.114 44.3397 207.259ZM253.213 224.418C253.542 224.434 254.077 224.394 254.105 224.494C254.374 225.073 254 225.285 253.494 225.426C253.41 225.125 253.325 224.819 253.213 224.418ZM8.30317 234.016C8.47962 233.853 8.62457 233.597 8.92565 233.513C9.02601 233.485 9.18215 233.658 9.31682 233.734C9.13898 233.892 8.96613 234.048 8.72083 234.332C8.66505 234.131 8.43645 234.087 8.30317 234.016Z" fill="#FFAE00"/>
</svg>
